G04*
G04 #@! TF.GenerationSoftware,Altium Limited,Altium Designer,22.11.1 (43)*
G04*
G04 Layer_Color=32768*
%FSLAX25Y25*%
%MOIN*%
G70*
G04*
G04 #@! TF.SameCoordinates,C5D6164D-5D78-48BC-AB56-747E864F78F7*
G04*
G04*
G04 #@! TF.FilePolarity,Positive*
G04*
G01*
G75*
%ADD11C,0.00500*%
%ADD16C,0.00394*%
%ADD84C,0.00197*%
%ADD86C,0.03937*%
%ADD87C,0.01000*%
%ADD88C,0.00300*%
D11*
X195039Y309890D02*
Y346110D01*
Y309890D02*
X224961D01*
Y346110D01*
X195039D02*
X224961D01*
D16*
X264350Y323169D02*
X279850D01*
X264850Y305669D02*
X278850D01*
X264850D02*
Y323169D01*
X278850Y305669D02*
Y323169D01*
X362916Y387854D02*
Y404980D01*
Y387854D02*
X381027D01*
Y404980D01*
X362916D02*
X381027D01*
D84*
X289185Y304012D02*
G03*
X295366Y310193I0J6181D01*
G01*
X248122D02*
G03*
X254303Y304012I6181J0D01*
G01*
Y324327D02*
G03*
X248122Y318146I0J-6181D01*
G01*
X295366D02*
G03*
X289185Y324327I-6181J0D01*
G01*
X60433Y-33854D02*
Y20595D01*
X89567D01*
Y-33854D02*
Y20595D01*
X60433Y-33854D02*
X89567D01*
X295366Y310193D02*
Y318146D01*
X254303Y304012D02*
X289185D01*
X248122Y310193D02*
Y318146D01*
X254303Y324327D02*
X289185D01*
X474933Y-33854D02*
Y20595D01*
X504067D01*
Y-33854D02*
Y20595D01*
X474933Y-33854D02*
X504067D01*
X336433D02*
Y20595D01*
X365567D01*
Y-33854D02*
Y20595D01*
X336433Y-33854D02*
X365567D01*
X198433D02*
Y20595D01*
X227567D01*
Y-33854D02*
Y20595D01*
X198433Y-33854D02*
X227567D01*
X4145Y371610D02*
X8082D01*
X6114Y369642D02*
Y373579D01*
X-12784Y388933D02*
X25012D01*
X-12784Y354287D02*
Y388933D01*
Y354287D02*
X25012D01*
Y388933D01*
X435074Y393453D02*
X450491D01*
X435074Y383547D02*
X450491D01*
X435074D02*
Y393453D01*
X450491Y383547D02*
Y393453D01*
X474110Y368335D02*
Y397665D01*
X452456D02*
X474110D01*
X452456Y368335D02*
Y397665D01*
Y368335D02*
X474110D01*
X387606Y346323D02*
X427960D01*
Y386677D01*
X387606D02*
X427960D01*
X387606Y346323D02*
Y386677D01*
D86*
X210000Y328000D02*
D03*
D87*
X351251Y371000D02*
D03*
X358751D02*
D03*
X366251D02*
D03*
X373751D02*
D03*
D88*
X348594Y364898D02*
X353909D01*
Y377103D01*
X348594D02*
X353909D01*
X348594Y364898D02*
Y377103D01*
X356094Y364898D02*
X361409D01*
Y377103D01*
X356094D02*
X361409D01*
X356094Y364898D02*
Y377103D01*
X363594Y364898D02*
X368909D01*
Y377103D01*
X363594D02*
X368909D01*
X363594Y364898D02*
Y377103D01*
X371094Y364898D02*
X376409D01*
Y377103D01*
X371094D02*
X376409D01*
X371094Y364898D02*
Y377103D01*
M02*
