M48
;Layer_Color=9474304
;FILE_FORMAT=2:4
INCH,TZ
;TYPE=PLATED
T1F00S00C0.0118
T2F00S00C0.0248
T3F00S00C0.0280
T5F00S00C0.0551
T6F00S00C0.1339
;TYPE=NON_PLATED
T7F00S00C0.0787
%
T01
X7500Y2250
X21300
X35100Y2200
X48950
X53900Y14300
Y16300
X40100Y16000
Y14100
X26100Y14200
Y16650
X3998Y29064
X3752
X17732Y28854
X17978
X20350Y28100
Y30600
X24500Y29850
X25350Y29150
X27500
X26850Y30400
Y34100
X35128Y35711
X35878Y35712
X36628Y35712
X37378Y35706
X38600Y35800
X38580Y36178
X38578Y36612
X38565Y37124
X38578Y37600
X38572Y38061
X37378Y37800
X36627Y37801
X35878Y37800
X35128
X39378Y37150
Y35650
X38537Y35087
X38579Y34844
X38478Y34500
X39678Y34500
X40000Y34550
X40746Y34482
X41093Y34546
X41430Y34520
X42149Y34064
X41011Y36996
X41200Y29150
X38850
X35100Y28100
Y31350
X31950Y28854
X31703
X45682
X45929
X48700Y28100
Y31350
X49028Y36050
X49310Y36044
X46778Y35927
Y36173
X45728Y36000
X44478Y36000
X43657Y35259
X43070Y35408
X42828Y34800
X42478Y34900
Y34000
X43428Y34600
X43078Y36609
X43078Y37116
X43200Y37331
X43428Y37500
X43068Y37678
X45130Y37030
X46578Y37750
X48678Y38540
X48828Y38750
X44328Y38850
X43378Y38400
X42978Y38600
X42328Y38700
X42378Y39100
X43278Y39350
X43828Y40575
X44328Y40350
X42032Y40374
X41378Y40500
X41382Y39220
X41556Y39023
X41186Y39043
X41878Y39200
X40685Y39397
X40278Y39900
X40038Y40245
X39791
X38978Y38600
T02
X26214Y31417
X28135
T03
X38128Y41000
T05
X1950Y36472
Y37850
T06
X-100Y-100
X53850
Y43300
X-100
T07
X50320Y34711
Y37389
M30
