G04*
G04 #@! TF.GenerationSoftware,Altium Limited,Altium Designer,22.11.1 (43)*
G04*
G04 Layer_Color=16711935*
%FSLAX25Y25*%
%MOIN*%
G70*
G04*
G04 #@! TF.SameCoordinates,C5D6164D-5D78-48BC-AB56-747E864F78F7*
G04*
G04*
G04 #@! TF.FilePolarity,Positive*
G04*
G01*
G75*
%ADD10C,0.00787*%
%ADD11C,0.00500*%
%ADD16C,0.00394*%
%ADD84C,0.00197*%
D10*
X75394Y20949D02*
G03*
X75394Y20949I-394J0D01*
G01*
X489894D02*
G03*
X489894Y20949I-394J0D01*
G01*
X351394D02*
G03*
X351394Y20949I-394J0D01*
G01*
X213394D02*
G03*
X213394Y20949I-394J0D01*
G01*
X276772Y307870D02*
Y320469D01*
X266929D02*
X276772D01*
X266929Y307870D02*
X276772D01*
X266929D02*
Y320469D01*
X365672Y392382D02*
Y402224D01*
Y392382D02*
X378271D01*
Y402224D01*
X365672D02*
X378271D01*
D11*
X289077Y304996D02*
G03*
X294087Y310184I-89J5099D01*
G01*
X249401D02*
G03*
X254411Y304996I5099J-89D01*
G01*
Y323343D02*
G03*
X249401Y318155I89J-5099D01*
G01*
X294087D02*
G03*
X289077Y323343I-5099J89D01*
G01*
X62500Y4610D02*
X87500D01*
Y-1886D02*
Y4610D01*
X62500Y-1886D02*
X87500D01*
X62500D02*
Y4610D01*
Y-32870D02*
Y-1886D01*
Y-32870D02*
X87500D01*
Y-1886D01*
X294087Y310193D02*
Y318146D01*
X254402Y304996D02*
X289087D01*
X249402Y310193D02*
Y318146D01*
X254402Y323343D02*
X289087D01*
X477000Y4610D02*
X502000D01*
Y-1886D02*
Y4610D01*
X477000Y-1886D02*
X502000D01*
X477000D02*
Y4610D01*
Y-32870D02*
Y-1886D01*
Y-32870D02*
X502000D01*
Y-1886D01*
X338500Y4610D02*
X363500D01*
Y-1886D02*
Y4610D01*
X338500Y-1886D02*
X363500D01*
X338500D02*
Y4610D01*
Y-32870D02*
Y-1886D01*
Y-32870D02*
X363500D01*
Y-1886D01*
X200500Y4610D02*
X225500D01*
Y-1886D02*
Y4610D01*
X200500Y-1886D02*
X225500D01*
X200500D02*
Y4610D01*
Y-32870D02*
Y-1886D01*
Y-32870D02*
X225500D01*
Y-1886D01*
X437468Y392437D02*
X448098D01*
X437468Y384563D02*
X448098D01*
Y392437D01*
X437468Y384563D02*
Y392437D01*
D16*
X-11996Y355075D02*
X24224D01*
X-11996D02*
Y388146D01*
X24224D01*
Y355075D02*
Y388146D01*
X472928Y375323D02*
Y390677D01*
X453637D02*
X472928D01*
X453637Y375323D02*
Y390677D01*
Y375323D02*
X472928D01*
X467928D02*
X472928Y380323D01*
X390066Y350358D02*
X391641Y348784D01*
X390066D02*
X425499D01*
Y384217D01*
X390066D02*
X425499D01*
X390066Y348784D02*
Y384217D01*
D84*
X208347Y313630D02*
X211653D01*
X217402D02*
X220709D01*
X203898Y342370D02*
X216102D01*
X199291Y313630D02*
X202598D01*
X208347Y315456D02*
X211653D01*
X217402Y315456D02*
X220709D01*
X203898Y340544D02*
X216102D01*
X199291Y315456D02*
X202598D01*
X208347Y315944D02*
X211653D01*
X203898Y340056D02*
X216102D01*
X217402Y315944D02*
X220709D01*
X199291D02*
X202598D01*
X203898Y337865D02*
X216102D01*
X220709Y313630D02*
Y320799D01*
X217402Y313630D02*
Y320799D01*
Y318134D02*
X220709D01*
X217402Y319526D02*
X220709D01*
X208347Y313630D02*
Y320799D01*
Y318134D02*
X211653D01*
Y313630D02*
Y320799D01*
X208347Y319526D02*
X211653D01*
X203898Y335201D02*
Y342370D01*
X216102Y335201D02*
Y342370D01*
X203898Y336474D02*
X216102D01*
X199291Y313630D02*
Y320799D01*
Y318134D02*
X202598D01*
Y313630D02*
Y320799D01*
X199291Y319526D02*
X202598D01*
Y320717D02*
X208347D01*
Y320799D02*
X211653D01*
Y320717D02*
X217402D01*
Y320799D02*
X220709D01*
Y320717D02*
X223189D01*
X196811D02*
X199291D01*
Y320799D02*
X202598D01*
X196811Y320717D02*
X197281Y321187D01*
X196811Y320717D02*
Y335283D01*
X222719Y321187D02*
X223189Y320717D01*
Y335283D01*
X203898Y335201D02*
X216102D01*
X196811Y335283D02*
X203898D01*
X196811D02*
X197281Y334813D01*
X222719D02*
X223189Y335283D01*
X216102D02*
X223189D01*
X222719Y321187D02*
Y334813D01*
X197281D02*
X222719D01*
X197281Y321187D02*
Y334813D01*
Y321187D02*
X222719D01*
X349684Y369013D02*
X352818D01*
Y368642D02*
Y373358D01*
X349684Y368642D02*
Y373358D01*
Y372987D02*
X352818D01*
X349684Y373358D02*
X352818D01*
X349684Y368642D02*
X352818D01*
X349677Y373362D02*
X352826D01*
Y372969D02*
Y374150D01*
X349677D02*
X352826D01*
X349677Y372969D02*
Y374150D01*
Y367851D02*
Y369032D01*
X349680Y368638D02*
X352826D01*
X349677Y367851D02*
X352826D01*
Y369032D01*
X349677Y373362D02*
X349680Y368638D01*
X352822D02*
X352826Y373362D01*
X357184Y369013D02*
X360318D01*
Y368642D02*
Y373358D01*
X357184Y368642D02*
Y373358D01*
Y372987D02*
X360318D01*
X357184Y373358D02*
X360318D01*
X357184Y368642D02*
X360318D01*
X357177Y373362D02*
X360326D01*
Y372969D02*
Y374150D01*
X357177D02*
X360326D01*
X357177Y372969D02*
Y374150D01*
Y367851D02*
Y369032D01*
X357180Y368638D02*
X360326D01*
X357177Y367851D02*
X360326D01*
Y369032D01*
X357177Y373362D02*
X357180Y368638D01*
X360322D02*
X360326Y373362D01*
X364684Y369013D02*
X367818D01*
Y368642D02*
Y373358D01*
X364684Y368642D02*
Y373358D01*
Y372987D02*
X367818D01*
X364684Y373358D02*
X367818D01*
X364684Y368642D02*
X367818D01*
X364677Y373362D02*
X367826D01*
Y372969D02*
Y374150D01*
X364677D02*
X367826D01*
X364677Y372969D02*
Y374150D01*
Y367851D02*
Y369032D01*
X364680Y368638D02*
X367826D01*
X364677Y367851D02*
X367826D01*
Y369032D01*
X364677Y373362D02*
X364680Y368638D01*
X367822D02*
X367826Y373362D01*
X372184Y369013D02*
X375318D01*
Y368642D02*
Y373358D01*
X372184Y368642D02*
Y373358D01*
Y372987D02*
X375318D01*
X372184Y373358D02*
X375318D01*
X372184Y368642D02*
X375318D01*
X372177Y373362D02*
X375326D01*
Y372969D02*
Y374150D01*
X372177D02*
X375326D01*
X372177Y372969D02*
Y374150D01*
Y367851D02*
Y369032D01*
X372180Y368638D02*
X375326D01*
X372177Y367851D02*
X375326D01*
Y369032D01*
X372177Y373362D02*
X372180Y368638D01*
X375322D02*
X375326Y373362D01*
M02*
