G04*
G04 #@! TF.GenerationSoftware,Altium Limited,Altium Designer,22.11.1 (43)*
G04*
G04 Layer_Color=255*
%FSLAX25Y25*%
%MOIN*%
G70*
G04*
G04 #@! TF.SameCoordinates,C5D6164D-5D78-48BC-AB56-747E864F78F7*
G04*
G04*
G04 #@! TF.FilePolarity,Positive*
G04*
G01*
G75*
%ADD44R,0.03347X0.03347*%
G04:AMPARAMS|DCode=45|XSize=137.8mil|YSize=68.9mil|CornerRadius=8.61mil|HoleSize=0mil|Usage=FLASHONLY|Rotation=0.000|XOffset=0mil|YOffset=0mil|HoleType=Round|Shape=RoundedRectangle|*
%AMROUNDEDRECTD45*
21,1,0.13780,0.05167,0,0,0.0*
21,1,0.12057,0.06890,0,0,0.0*
1,1,0.01722,0.06029,-0.02584*
1,1,0.01722,-0.06029,-0.02584*
1,1,0.01722,-0.06029,0.02584*
1,1,0.01722,0.06029,0.02584*
%
%ADD45ROUNDEDRECTD45*%
G04:AMPARAMS|DCode=46|XSize=43.31mil|YSize=68.9mil|CornerRadius=5.41mil|HoleSize=0mil|Usage=FLASHONLY|Rotation=0.000|XOffset=0mil|YOffset=0mil|HoleType=Round|Shape=RoundedRectangle|*
%AMROUNDEDRECTD46*
21,1,0.04331,0.05807,0,0,0.0*
21,1,0.03248,0.06890,0,0,0.0*
1,1,0.01083,0.01624,-0.02904*
1,1,0.01083,-0.01624,-0.02904*
1,1,0.01083,-0.01624,0.02904*
1,1,0.01083,0.01624,0.02904*
%
%ADD46ROUNDEDRECTD46*%
G04:AMPARAMS|DCode=47|XSize=43.31mil|YSize=68.9mil|CornerRadius=5.41mil|HoleSize=0mil|Usage=FLASHONLY|Rotation=0.000|XOffset=0mil|YOffset=0mil|HoleType=Round|Shape=RoundedRectangle|*
%AMROUNDEDRECTD47*
21,1,0.04331,0.05807,0,0,0.0*
21,1,0.03248,0.06890,0,0,0.0*
1,1,0.01083,0.01624,-0.02904*
1,1,0.01083,-0.01624,-0.02904*
1,1,0.01083,-0.01624,0.02904*
1,1,0.01083,0.01624,0.02904*
%
%ADD47ROUNDEDRECTD47*%
%ADD48R,0.06000X0.04000*%
%ADD49R,0.05906X0.13780*%
%ADD50R,0.04528X0.05512*%
%ADD51R,0.05512X0.04724*%
%ADD52R,0.02165X0.02165*%
%ADD53R,0.02165X0.02165*%
G04:AMPARAMS|DCode=54|XSize=31.5mil|YSize=31.5mil|CornerRadius=3.94mil|HoleSize=0mil|Usage=FLASHONLY|Rotation=90.000|XOffset=0mil|YOffset=0mil|HoleType=Round|Shape=RoundedRectangle|*
%AMROUNDEDRECTD54*
21,1,0.03150,0.02362,0,0,90.0*
21,1,0.02362,0.03150,0,0,90.0*
1,1,0.00787,0.01181,0.01181*
1,1,0.00787,0.01181,-0.01181*
1,1,0.00787,-0.01181,-0.01181*
1,1,0.00787,-0.01181,0.01181*
%
%ADD54ROUNDEDRECTD54*%
%ADD55R,0.08465X0.03543*%
%ADD56R,0.10236X0.03543*%
%ADD57R,0.25394X0.25394*%
%ADD58R,0.03347X0.00787*%
%ADD59R,0.00787X0.03347*%
%ADD60R,0.02362X0.03347*%
%ADD66C,0.04055*%
G04:AMPARAMS|DCode=67|XSize=82.68mil|YSize=82.68mil|CornerRadius=20.67mil|HoleSize=0mil|Usage=FLASHONLY|Rotation=270.000|XOffset=0mil|YOffset=0mil|HoleType=Round|Shape=RoundedRectangle|*
%AMROUNDEDRECTD67*
21,1,0.08268,0.04134,0,0,270.0*
21,1,0.04134,0.08268,0,0,270.0*
1,1,0.04134,-0.02067,-0.02067*
1,1,0.04134,-0.02067,0.02067*
1,1,0.04134,0.02067,0.02067*
1,1,0.04134,0.02067,-0.02067*
%
%ADD67ROUNDEDRECTD67*%
%ADD68C,0.08268*%
%ADD69O,0.13386X0.09921*%
%ADD70C,0.07874*%
%ADD71R,0.19685X0.19685*%
D44*
X34000Y295449D02*
D03*
Y301551D02*
D03*
X43500Y295449D02*
D03*
Y301551D02*
D03*
X173733Y295449D02*
D03*
Y301551D02*
D03*
X183368Y295449D02*
D03*
Y301551D02*
D03*
X313500Y295449D02*
D03*
Y301551D02*
D03*
X323000Y295449D02*
D03*
Y301551D02*
D03*
X462783Y295449D02*
D03*
Y301551D02*
D03*
X453327Y295449D02*
D03*
Y301551D02*
D03*
X466985Y324952D02*
D03*
Y318850D02*
D03*
X461205Y324869D02*
D03*
Y318767D02*
D03*
D45*
X210000Y340992D02*
D03*
D46*
X219055Y315008D02*
D03*
X210000D02*
D03*
D47*
X200945D02*
D03*
D48*
X190000Y332000D02*
D03*
Y324000D02*
D03*
X229500Y325000D02*
D03*
Y333000D02*
D03*
X429783Y336000D02*
D03*
Y328000D02*
D03*
D49*
X75000Y11500D02*
D03*
X64370D02*
D03*
X85630D02*
D03*
X489500D02*
D03*
X478870D02*
D03*
X500130D02*
D03*
X351000D02*
D03*
X340370D02*
D03*
X361630D02*
D03*
X213000D02*
D03*
X202370D02*
D03*
X223630D02*
D03*
D50*
X268701Y309839D02*
D03*
X275000Y318500D02*
D03*
Y309839D02*
D03*
X268701Y318500D02*
D03*
D51*
X367641Y400650D02*
D03*
X376302D02*
D03*
Y393957D02*
D03*
X367641D02*
D03*
D52*
X436983Y375000D02*
D03*
X441583D02*
D03*
X436983Y369000D02*
D03*
X441583D02*
D03*
X432483Y389000D02*
D03*
X437083D02*
D03*
X429495Y343139D02*
D03*
X434095D02*
D03*
X436983Y363000D02*
D03*
X441583D02*
D03*
X436983Y357000D02*
D03*
X441583D02*
D03*
X465083Y370500D02*
D03*
X460483D02*
D03*
X441583Y381000D02*
D03*
X436983D02*
D03*
X385133Y384098D02*
D03*
X380533D02*
D03*
X404483Y405000D02*
D03*
X409083D02*
D03*
X404583Y411500D02*
D03*
X399983D02*
D03*
X413583D02*
D03*
X408983D02*
D03*
X463583Y385500D02*
D03*
X458983D02*
D03*
X463583Y381500D02*
D03*
X458983D02*
D03*
D53*
X449783Y336200D02*
D03*
Y340800D02*
D03*
X443283D02*
D03*
Y336200D02*
D03*
X449783Y350800D02*
D03*
Y346200D02*
D03*
X385283Y396200D02*
D03*
Y400800D02*
D03*
X361783Y398800D02*
D03*
Y394200D02*
D03*
X422736Y331375D02*
D03*
Y335975D02*
D03*
X455283Y336200D02*
D03*
Y340800D02*
D03*
D54*
X351251Y374347D02*
D03*
Y367654D02*
D03*
X358751Y374347D02*
D03*
Y367654D02*
D03*
X366251Y374347D02*
D03*
Y367654D02*
D03*
X373751Y374347D02*
D03*
Y367654D02*
D03*
D55*
X481763Y380185D02*
D03*
Y340815D02*
D03*
Y370343D02*
D03*
Y350658D02*
D03*
Y360500D02*
D03*
D56*
X482649Y345736D02*
D03*
Y375264D02*
D03*
Y355579D02*
D03*
Y365421D02*
D03*
D57*
X407783Y366500D02*
D03*
D58*
X390263Y352327D02*
D03*
Y353902D02*
D03*
Y355476D02*
D03*
Y357051D02*
D03*
Y358626D02*
D03*
Y360201D02*
D03*
Y361776D02*
D03*
Y363351D02*
D03*
Y364925D02*
D03*
Y366500D02*
D03*
Y368075D02*
D03*
Y369650D02*
D03*
Y371224D02*
D03*
Y372799D02*
D03*
Y374374D02*
D03*
Y375949D02*
D03*
Y377524D02*
D03*
Y379099D02*
D03*
Y380673D02*
D03*
X425302D02*
D03*
Y379099D02*
D03*
Y377524D02*
D03*
Y375949D02*
D03*
Y374374D02*
D03*
Y372799D02*
D03*
Y371224D02*
D03*
Y369650D02*
D03*
Y368075D02*
D03*
Y366500D02*
D03*
Y364925D02*
D03*
Y363351D02*
D03*
Y361776D02*
D03*
Y360201D02*
D03*
Y358626D02*
D03*
Y357051D02*
D03*
Y355476D02*
D03*
Y353902D02*
D03*
Y352327D02*
D03*
D59*
X393609Y384020D02*
D03*
X395184D02*
D03*
X396759D02*
D03*
X398334D02*
D03*
X399909D02*
D03*
X401483D02*
D03*
X403058D02*
D03*
X404633D02*
D03*
X406208D02*
D03*
X407783D02*
D03*
X409358D02*
D03*
X410932D02*
D03*
X412507D02*
D03*
X414082D02*
D03*
X415657D02*
D03*
X417232D02*
D03*
X418806D02*
D03*
X420381D02*
D03*
X421956D02*
D03*
Y348980D02*
D03*
X420381D02*
D03*
X418806D02*
D03*
X417232D02*
D03*
X415657D02*
D03*
X414082D02*
D03*
X412507D02*
D03*
X410932D02*
D03*
X409358D02*
D03*
X407783D02*
D03*
X406208D02*
D03*
X404633D02*
D03*
X403058D02*
D03*
X401483D02*
D03*
X399909D02*
D03*
X398334D02*
D03*
X396759D02*
D03*
X395184D02*
D03*
X393609D02*
D03*
D60*
X461168Y337558D02*
D03*
Y332243D02*
D03*
D66*
X262138Y314169D02*
D03*
X281350D02*
D03*
D67*
X19500Y378500D02*
D03*
D68*
Y364721D02*
D03*
D69*
X503200Y387272D02*
D03*
Y333729D02*
D03*
D70*
Y347114D02*
D03*
Y373886D02*
D03*
D71*
X-1000Y-1000D02*
D03*
X538500D02*
D03*
Y433000D02*
D03*
X-1000D02*
D03*
M02*
