G04*
G04 #@! TF.GenerationSoftware,Altium Limited,Altium Designer,22.11.1 (43)*
G04*
G04 Layer_Physical_Order=1*
G04 Layer_Color=255*
%FSLAX25Y25*%
%MOIN*%
G70*
G04*
G04 #@! TF.SameCoordinates,C5D6164D-5D78-48BC-AB56-747E864F78F7*
G04*
G04*
G04 #@! TF.FilePolarity,Positive*
G04*
G01*
G75*
%ADD11C,0.00500*%
%ADD13C,0.01968*%
%ADD15C,0.01200*%
%ADD17C,0.01000*%
%ADD41C,0.02953*%
%ADD42C,0.00829*%
%ADD43C,0.00733*%
%ADD44R,0.03347X0.03347*%
G04:AMPARAMS|DCode=45|XSize=137.8mil|YSize=68.9mil|CornerRadius=8.61mil|HoleSize=0mil|Usage=FLASHONLY|Rotation=0.000|XOffset=0mil|YOffset=0mil|HoleType=Round|Shape=RoundedRectangle|*
%AMROUNDEDRECTD45*
21,1,0.13780,0.05167,0,0,0.0*
21,1,0.12057,0.06890,0,0,0.0*
1,1,0.01722,0.06029,-0.02584*
1,1,0.01722,-0.06029,-0.02584*
1,1,0.01722,-0.06029,0.02584*
1,1,0.01722,0.06029,0.02584*
%
%ADD45ROUNDEDRECTD45*%
G04:AMPARAMS|DCode=46|XSize=43.31mil|YSize=68.9mil|CornerRadius=5.41mil|HoleSize=0mil|Usage=FLASHONLY|Rotation=0.000|XOffset=0mil|YOffset=0mil|HoleType=Round|Shape=RoundedRectangle|*
%AMROUNDEDRECTD46*
21,1,0.04331,0.05807,0,0,0.0*
21,1,0.03248,0.06890,0,0,0.0*
1,1,0.01083,0.01624,-0.02904*
1,1,0.01083,-0.01624,-0.02904*
1,1,0.01083,-0.01624,0.02904*
1,1,0.01083,0.01624,0.02904*
%
%ADD46ROUNDEDRECTD46*%
G04:AMPARAMS|DCode=47|XSize=43.31mil|YSize=68.9mil|CornerRadius=5.41mil|HoleSize=0mil|Usage=FLASHONLY|Rotation=0.000|XOffset=0mil|YOffset=0mil|HoleType=Round|Shape=RoundedRectangle|*
%AMROUNDEDRECTD47*
21,1,0.04331,0.05807,0,0,0.0*
21,1,0.03248,0.06890,0,0,0.0*
1,1,0.01083,0.01624,-0.02904*
1,1,0.01083,-0.01624,-0.02904*
1,1,0.01083,-0.01624,0.02904*
1,1,0.01083,0.01624,0.02904*
%
%ADD47ROUNDEDRECTD47*%
%ADD48R,0.06000X0.04000*%
%ADD49R,0.05906X0.13780*%
%ADD50R,0.04528X0.05512*%
%ADD51R,0.05512X0.04724*%
%ADD52R,0.02165X0.02165*%
%ADD53R,0.02165X0.02165*%
G04:AMPARAMS|DCode=54|XSize=31.5mil|YSize=31.5mil|CornerRadius=3.94mil|HoleSize=0mil|Usage=FLASHONLY|Rotation=90.000|XOffset=0mil|YOffset=0mil|HoleType=Round|Shape=RoundedRectangle|*
%AMROUNDEDRECTD54*
21,1,0.03150,0.02362,0,0,90.0*
21,1,0.02362,0.03150,0,0,90.0*
1,1,0.00787,0.01181,0.01181*
1,1,0.00787,0.01181,-0.01181*
1,1,0.00787,-0.01181,-0.01181*
1,1,0.00787,-0.01181,0.01181*
%
%ADD54ROUNDEDRECTD54*%
%ADD55R,0.08465X0.03543*%
%ADD56R,0.10236X0.03543*%
%ADD57R,0.25394X0.25394*%
%ADD58R,0.03347X0.00787*%
%ADD59R,0.00787X0.03347*%
%ADD60R,0.02362X0.03347*%
%ADD61C,0.03937*%
%ADD62C,0.01825*%
%ADD63C,0.01241*%
%ADD64C,0.00800*%
%ADD65C,0.02500*%
%ADD66C,0.04055*%
G04:AMPARAMS|DCode=67|XSize=82.68mil|YSize=82.68mil|CornerRadius=20.67mil|HoleSize=0mil|Usage=FLASHONLY|Rotation=270.000|XOffset=0mil|YOffset=0mil|HoleType=Round|Shape=RoundedRectangle|*
%AMROUNDEDRECTD67*
21,1,0.08268,0.04134,0,0,270.0*
21,1,0.04134,0.08268,0,0,270.0*
1,1,0.04134,-0.02067,-0.02067*
1,1,0.04134,-0.02067,0.02067*
1,1,0.04134,0.02067,0.02067*
1,1,0.04134,0.02067,-0.02067*
%
%ADD67ROUNDEDRECTD67*%
%ADD68C,0.08268*%
%ADD69O,0.13386X0.09921*%
%ADD70C,0.07874*%
%ADD71R,0.19685X0.19685*%
%ADD72C,0.01968*%
%ADD73C,0.05000*%
G36*
X550500Y-13000D02*
X-13000D01*
Y445000D01*
X550500D01*
Y-13000D01*
D02*
G37*
%LPC*%
G36*
X410565Y413083D02*
X407400D01*
Y412265D01*
X406165D01*
Y413083D01*
X403000D01*
Y409917D01*
X403818D01*
Y406583D01*
X402900D01*
Y403417D01*
X406065D01*
Y406583D01*
X405347D01*
Y409917D01*
X406165D01*
Y410735D01*
X407400D01*
Y409917D01*
X410565D01*
Y413083D01*
D02*
G37*
G36*
X402065Y411000D02*
X400483D01*
Y409417D01*
X402065D01*
Y411000D01*
D02*
G37*
G36*
X399483D02*
X397900D01*
Y409417D01*
X399483D01*
Y411000D01*
D02*
G37*
G36*
X410665Y406583D02*
X407500D01*
Y403417D01*
X410665D01*
Y404235D01*
X412493D01*
X412525Y404159D01*
X412942Y403742D01*
X413487Y403516D01*
X414078D01*
X414623Y403742D01*
X415041Y404159D01*
X415267Y404705D01*
Y405295D01*
X415041Y405841D01*
X414623Y406258D01*
X414078Y406484D01*
X413487D01*
X412942Y406258D01*
X412525Y405841D01*
X412493Y405765D01*
X410665D01*
Y406583D01*
D02*
G37*
G36*
X415165Y413083D02*
X412000D01*
Y409917D01*
X415165D01*
Y410735D01*
X440466D01*
X442518Y408683D01*
Y404790D01*
X442442Y404758D01*
X442025Y404341D01*
X441798Y403795D01*
Y403205D01*
X442025Y402659D01*
X442442Y402242D01*
X442987Y402016D01*
X443578D01*
X444124Y402242D01*
X444541Y402659D01*
X444767Y403205D01*
Y403795D01*
X444541Y404341D01*
X444124Y404758D01*
X444047Y404790D01*
Y409000D01*
X443989Y409293D01*
X443823Y409541D01*
X443823Y409541D01*
X441324Y412041D01*
X441075Y412207D01*
X440783Y412265D01*
X415165D01*
Y413083D01*
D02*
G37*
G36*
X371397Y404012D02*
X368141D01*
Y401150D01*
X371397D01*
Y404012D01*
D02*
G37*
G36*
X361283Y400883D02*
X359700D01*
Y399300D01*
X361283D01*
Y400883D01*
D02*
G37*
G36*
Y398300D02*
X359700D01*
Y396717D01*
X361283D01*
Y398300D01*
D02*
G37*
G36*
X387365Y398283D02*
X385783D01*
Y396700D01*
X387365D01*
Y398283D01*
D02*
G37*
G36*
X384783D02*
X383200D01*
Y396700D01*
X384783D01*
Y398283D01*
D02*
G37*
G36*
X387365Y395700D02*
X385783D01*
Y394117D01*
X387365D01*
Y395700D01*
D02*
G37*
G36*
X384783D02*
X383200D01*
Y394117D01*
X384783D01*
Y395700D01*
D02*
G37*
G36*
X380058Y393457D02*
X376802D01*
Y390595D01*
X380058D01*
Y393457D01*
D02*
G37*
G36*
X375802D02*
X372547D01*
Y390595D01*
X375802D01*
Y393457D01*
D02*
G37*
G36*
X382616Y386181D02*
X381033D01*
Y384598D01*
X382616D01*
Y386181D01*
D02*
G37*
G36*
X380033D02*
X378451D01*
Y384598D01*
X380033D01*
Y386181D01*
D02*
G37*
G36*
X382616Y383598D02*
X381033D01*
Y382015D01*
X382616D01*
Y383598D01*
D02*
G37*
G36*
X447533Y418015D02*
X387283D01*
X386511Y417862D01*
X385858Y417425D01*
X381433Y413000D01*
X380888D01*
X380125Y412796D01*
X379441Y412401D01*
X378882Y411842D01*
X378487Y411158D01*
X378283Y410395D01*
Y409605D01*
X378487Y408842D01*
X378882Y408158D01*
X379441Y407599D01*
X380125Y407204D01*
X380888Y407000D01*
X381678D01*
X382441Y407204D01*
X383125Y407599D01*
X383683Y408158D01*
X384078Y408842D01*
X384283Y409605D01*
Y410150D01*
X388117Y413985D01*
X397664D01*
X397900Y413583D01*
X397900Y413485D01*
Y412000D01*
X402065D01*
Y413485D01*
X402065Y413583D01*
X402301Y413985D01*
X446698D01*
X451108Y409575D01*
X451761Y409138D01*
X452533Y408985D01*
X507948D01*
X514268Y402665D01*
Y327516D01*
X513718Y326967D01*
X469158D01*
Y327125D01*
X464812D01*
Y326032D01*
X463379D01*
Y327043D01*
X462308D01*
Y330070D01*
X462849D01*
Y334417D01*
X459487D01*
Y330070D01*
X460065D01*
Y327043D01*
X459032D01*
Y325991D01*
X445878D01*
X441404Y330465D01*
Y334117D01*
X442783D01*
Y336200D01*
Y338283D01*
X441348D01*
X441319Y338429D01*
X441076Y338793D01*
X441076Y338793D01*
X439076Y340793D01*
X438712Y341036D01*
X438283Y341122D01*
X438283Y341122D01*
X435836D01*
X435677Y341556D01*
X435677Y341621D01*
Y344722D01*
X435677Y344722D01*
X435567Y345221D01*
X435767Y345705D01*
Y346141D01*
X435964Y346302D01*
X436158Y346393D01*
X436229Y346411D01*
X436404Y346293D01*
X436697Y346235D01*
X436697Y346235D01*
X440966D01*
X442018Y345183D01*
Y342383D01*
X441700D01*
Y339217D01*
X444865D01*
Y342383D01*
X443547D01*
Y345500D01*
X443489Y345793D01*
X443324Y346041D01*
X442591Y346773D01*
X442782Y347235D01*
X443466D01*
X445042Y345659D01*
X445042Y345659D01*
X445290Y345494D01*
X445583Y345435D01*
X448200D01*
Y344617D01*
X449018D01*
Y342383D01*
X448200D01*
Y339217D01*
X451365D01*
Y340035D01*
X453700D01*
Y339217D01*
X456865D01*
Y342383D01*
X453700D01*
Y341565D01*
X451365D01*
Y342383D01*
X450548D01*
Y344617D01*
X451365D01*
Y347783D01*
X448200D01*
Y346965D01*
X445899D01*
X444323Y348541D01*
X444075Y348707D01*
X443783Y348765D01*
X437428D01*
X435320Y350873D01*
X435346Y351003D01*
X435431Y351077D01*
X435906Y351256D01*
X436270Y351105D01*
X436463D01*
X437562Y350007D01*
X437562Y350007D01*
X437926Y349764D01*
X438355Y349678D01*
X438355Y349678D01*
X448200D01*
Y349217D01*
X451365D01*
Y352383D01*
X450548D01*
Y358500D01*
Y361683D01*
X453099Y364235D01*
X456730D01*
X456937Y363735D01*
X456742Y363541D01*
X456576Y363293D01*
X456518Y363000D01*
Y361290D01*
X456442Y361258D01*
X456025Y360841D01*
X455798Y360295D01*
Y359705D01*
X456025Y359159D01*
X456442Y358742D01*
X456987Y358516D01*
X457578D01*
X458123Y358742D01*
X458541Y359159D01*
X458767Y359705D01*
Y360295D01*
X458541Y360841D01*
X458123Y361258D01*
X458047Y361290D01*
Y362683D01*
X458100Y362735D01*
X464783D01*
X465075Y362793D01*
X465323Y362959D01*
X467823Y365459D01*
X467824Y365459D01*
X467989Y365707D01*
X468048Y366000D01*
Y376000D01*
X467989Y376293D01*
X467824Y376541D01*
X467236Y377129D01*
X467267Y377205D01*
Y377795D01*
X467041Y378341D01*
X466623Y378758D01*
X466078Y378984D01*
X465487D01*
X464942Y378758D01*
X464525Y378341D01*
X464452Y378166D01*
X463863Y378049D01*
X462494Y379417D01*
X462701Y379917D01*
X465165D01*
Y381967D01*
X465217Y381989D01*
Y382000D01*
X466904D01*
Y381973D01*
X468672Y382147D01*
X470371Y382663D01*
X471938Y383500D01*
X473311Y384627D01*
X473311Y384627D01*
X473675Y384955D01*
X474350Y385473D01*
X475583Y385983D01*
X476873Y386153D01*
X476906Y386147D01*
X485038D01*
X485315Y385731D01*
X485298Y385690D01*
Y385100D01*
X485525Y384554D01*
X485942Y384137D01*
X486487Y383911D01*
X487078D01*
X487624Y384137D01*
X488041Y384554D01*
X488267Y385100D01*
Y385690D01*
X488484Y386016D01*
X488578D01*
X489123Y386242D01*
X489541Y386659D01*
X489767Y387205D01*
Y387795D01*
X489541Y388341D01*
X489123Y388758D01*
X488578Y388984D01*
X487988D01*
X487442Y388758D01*
X487388Y388705D01*
X486905Y389028D01*
X486216Y389165D01*
Y389147D01*
X476899D01*
Y389169D01*
X475317Y389013D01*
X473797Y388552D01*
X472395Y387803D01*
X471167Y386794D01*
X471167Y386794D01*
X470801Y386470D01*
X470258Y386024D01*
X469211Y385465D01*
X468075Y385120D01*
X466894Y385004D01*
Y385000D01*
X465217D01*
Y385012D01*
X465165Y385033D01*
Y387083D01*
X462000D01*
Y383917D01*
X463282D01*
X463742Y383821D01*
X463848Y383750D01*
Y383250D01*
X463742Y383179D01*
X463282Y383083D01*
X462000D01*
Y380556D01*
X461875Y380440D01*
X461500Y380231D01*
X461330Y380265D01*
X460565D01*
Y383083D01*
X459152D01*
X459080Y383116D01*
X458924Y383706D01*
X459063Y383917D01*
X460565D01*
Y387083D01*
X457400D01*
Y385033D01*
X454651D01*
X454559Y385071D01*
X453546Y386084D01*
X453500Y386115D01*
X452277Y387606D01*
X451344Y389350D01*
X450770Y391243D01*
X450594Y393032D01*
X450607Y393524D01*
X450605Y393607D01*
X450508Y394347D01*
X450223Y395036D01*
X449974Y395360D01*
X449929Y395442D01*
X449811Y395582D01*
X449735Y395673D01*
X449713Y395692D01*
X449651Y395785D01*
X449465Y395915D01*
X449465Y395915D01*
X449046Y396258D01*
X447472Y397100D01*
X446924Y397266D01*
X446998Y397766D01*
X482660D01*
X482697Y397773D01*
X484441Y397602D01*
X486153Y397082D01*
X487731Y396239D01*
X489086Y395127D01*
X489107Y395096D01*
X490419Y393784D01*
Y381667D01*
X490371Y381551D01*
X490371Y381551D01*
X490239Y381340D01*
X490153Y381228D01*
X490093Y381084D01*
X490057Y381069D01*
X489477Y381069D01*
X486495D01*
Y382457D01*
X477031D01*
Y378035D01*
X476531D01*
Y375764D01*
X482649D01*
Y374764D01*
X476531D01*
Y372492D01*
X477031D01*
Y368193D01*
X477031Y368071D01*
Y367693D01*
X477031Y367571D01*
Y367039D01*
X476910Y366564D01*
X476473Y366477D01*
X476102Y366229D01*
X472432Y362559D01*
X469048D01*
X469041Y362575D01*
X468623Y362993D01*
X468078Y363219D01*
X467487D01*
X466942Y362993D01*
X466525Y362575D01*
X466298Y362030D01*
Y361439D01*
X466525Y360894D01*
X466918Y360500D01*
X466525Y360107D01*
X466298Y359561D01*
Y358971D01*
X466525Y358425D01*
X466942Y358008D01*
X467487Y357782D01*
X468078D01*
X468623Y358008D01*
X469041Y358425D01*
X469048Y358441D01*
X472432D01*
X476102Y354771D01*
X476473Y354523D01*
X476910Y354436D01*
X477031Y353961D01*
Y353429D01*
X477031Y353307D01*
Y352929D01*
X477031Y352807D01*
Y348508D01*
X477031Y348386D01*
Y348008D01*
X476706Y347521D01*
X463019D01*
X462336Y347385D01*
X461757Y346998D01*
X461757Y346998D01*
X459906Y345147D01*
X459519Y344568D01*
X459383Y343885D01*
Y337558D01*
X459487Y337039D01*
Y335385D01*
X462849D01*
Y337040D01*
X462952Y337558D01*
Y343146D01*
X463758Y343952D01*
X476677D01*
X477031Y343599D01*
X477031Y343087D01*
X477031Y342965D01*
Y338543D01*
X486495D01*
Y339989D01*
X488467Y340347D01*
X488534Y340374D01*
X489413Y340640D01*
X490549Y341247D01*
X491544Y342064D01*
X491700Y342254D01*
X491742Y342305D01*
X491766Y342322D01*
X491786Y342350D01*
X491811Y342370D01*
X491811Y342370D01*
X491815Y342374D01*
X491985Y342639D01*
X492041Y342727D01*
X492049Y342766D01*
X492494Y343600D01*
X493039Y345395D01*
X493223Y347262D01*
X493193D01*
Y358528D01*
X493203D01*
X493290Y358961D01*
X493399D01*
X493945Y359187D01*
X494362Y359604D01*
X494588Y360150D01*
Y360740D01*
X494362Y361286D01*
X493945Y361703D01*
X493399Y361929D01*
X492809D01*
X492263Y361703D01*
X492029Y361469D01*
X491655Y361371D01*
X491394Y361488D01*
X491123Y361758D01*
X490578Y361984D01*
X489988D01*
X489442Y361758D01*
X489024Y361341D01*
X488799Y360795D01*
Y360205D01*
X489024Y359659D01*
X489442Y359242D01*
X489988Y359016D01*
X490097D01*
X490184Y358583D01*
X490193D01*
Y353622D01*
X490192Y353144D01*
X489893Y352745D01*
X489815Y352643D01*
X488934Y351967D01*
X487908Y351542D01*
X486988Y351421D01*
X486495Y351751D01*
Y352807D01*
X486495Y352929D01*
X486790Y353307D01*
X488267D01*
Y357851D01*
X486995D01*
Y360000D01*
X481763D01*
Y361000D01*
X486995D01*
Y363150D01*
X488267D01*
Y367693D01*
X486790D01*
X486495Y368071D01*
X486495Y368193D01*
Y369487D01*
X487428Y369579D01*
X488858Y370012D01*
X490176Y370717D01*
X491331Y371665D01*
X492279Y372820D01*
X492984Y374138D01*
X493128Y374613D01*
X493173Y374755D01*
X493348Y375192D01*
X493348D01*
X493348Y375193D01*
X493359Y375327D01*
X493364Y375366D01*
X493359Y375327D01*
X493433Y375802D01*
X493419D01*
Y394153D01*
X493443D01*
X493281Y394969D01*
X492818Y395661D01*
X492802Y395644D01*
X491225Y397220D01*
X491239Y397235D01*
X489792Y398471D01*
X488170Y399465D01*
X486412Y400193D01*
X484562Y400637D01*
X482665Y400787D01*
Y400766D01*
X482664Y400766D01*
X407299D01*
Y400790D01*
X406483Y400628D01*
X405791Y400166D01*
X405791Y400166D01*
X405455Y399795D01*
X404842Y399183D01*
X404842Y399183D01*
X404825Y399200D01*
X404767Y399129D01*
X404267Y399295D01*
X404041Y399841D01*
X403623Y400258D01*
X403078Y400484D01*
X402488D01*
X401942Y400258D01*
X401524Y399841D01*
X401299Y399295D01*
Y398919D01*
X401144Y398793D01*
X400643Y399030D01*
Y400961D01*
X400673D01*
X401219Y401187D01*
X401636Y401604D01*
X401862Y402150D01*
Y402740D01*
X401636Y403286D01*
X401219Y403703D01*
X400673Y403929D01*
X400082D01*
X399537Y403703D01*
X399144Y403310D01*
X398750Y403703D01*
X398204Y403929D01*
X397614D01*
X397068Y403703D01*
X396651Y403286D01*
X396425Y402740D01*
Y402150D01*
X396651Y401604D01*
X397068Y401187D01*
X397614Y400961D01*
X397643D01*
Y393227D01*
X397621Y393116D01*
Y389325D01*
X397121Y389118D01*
X395413Y390826D01*
Y398138D01*
X395355Y398430D01*
X395189Y398678D01*
X392481Y401387D01*
X392233Y401553D01*
X391940Y401611D01*
X386865D01*
Y402383D01*
X383700D01*
Y401611D01*
X379558D01*
Y403512D01*
X373046D01*
Y397819D01*
X373046Y397787D01*
X372970Y397319D01*
X372547D01*
Y394457D01*
X380058D01*
Y397319D01*
X379634D01*
X379558Y397787D01*
X379558Y397819D01*
Y400082D01*
X383700D01*
Y399217D01*
X386865D01*
Y400082D01*
X391623D01*
X393884Y397821D01*
Y390510D01*
X393942Y390217D01*
X394108Y389969D01*
X395639Y388438D01*
X395638Y388433D01*
X395624Y388420D01*
X395096Y388268D01*
X394823Y388541D01*
X394621Y388743D01*
X394373Y388909D01*
X394080Y388967D01*
X371897D01*
X370270Y390595D01*
X370345Y391094D01*
X370897D01*
Y396787D01*
X370897Y396819D01*
X370973Y397287D01*
X371397D01*
Y400150D01*
X367641D01*
Y400650D01*
X367141D01*
Y404012D01*
X363885D01*
Y401374D01*
X363865Y400883D01*
X363385Y400883D01*
X362283D01*
Y398800D01*
Y396717D01*
X363865D01*
Y396796D01*
X363869Y396879D01*
X363911Y396882D01*
X363929Y396878D01*
X364385Y396409D01*
Y394965D01*
X363365D01*
Y395783D01*
X360200D01*
Y392617D01*
X363365D01*
Y393435D01*
X364385D01*
Y391094D01*
X368687D01*
Y390331D01*
X368745Y390038D01*
X368911Y389790D01*
X371039Y387662D01*
X371287Y387496D01*
X371580Y387438D01*
X371580Y387438D01*
X393763D01*
X394193Y387009D01*
X394420Y386782D01*
Y386193D01*
X392716D01*
Y384785D01*
X386716D01*
Y385681D01*
X383551D01*
Y382515D01*
X385134D01*
X385233Y382015D01*
X384884Y381871D01*
X384466Y381453D01*
X384240Y380908D01*
Y380317D01*
X384466Y379772D01*
X384884Y379354D01*
X385429Y379128D01*
X386020D01*
X386565Y379354D01*
X386983Y379772D01*
X387027Y379878D01*
X388090D01*
Y376713D01*
X387094D01*
X387041Y376841D01*
X386624Y377258D01*
X386078Y377484D01*
X385488D01*
X384942Y377258D01*
X384524Y376841D01*
X384298Y376295D01*
Y375705D01*
X384524Y375159D01*
X384942Y374742D01*
X385488Y374516D01*
X386078D01*
X386624Y374742D01*
X387041Y375159D01*
X387051Y375184D01*
X388090D01*
Y371997D01*
X386939D01*
X386904Y372083D01*
X386486Y372501D01*
X385941Y372727D01*
X385350D01*
X384805Y372501D01*
X384387Y372083D01*
X384161Y371538D01*
Y371140D01*
X383769Y370687D01*
X383478Y370725D01*
X382430Y371160D01*
X381530Y371850D01*
X380839Y372750D01*
X380405Y373798D01*
X380259Y374908D01*
X380262Y374923D01*
Y376500D01*
X380284D01*
X380125Y378116D01*
X379653Y379670D01*
X378888Y381102D01*
X378549Y381515D01*
X378785Y382015D01*
X380033D01*
Y383598D01*
X378451D01*
Y382423D01*
X377951Y382244D01*
X377858Y382358D01*
X376602Y383388D01*
X375170Y384153D01*
X373616Y384625D01*
X372000Y384784D01*
Y384762D01*
X49415D01*
Y384782D01*
X47493Y384631D01*
X45619Y384181D01*
X43839Y383443D01*
X42195Y382436D01*
X40730Y381185D01*
X39478Y379719D01*
X38471Y378076D01*
X37734Y376295D01*
X37284Y374421D01*
X37133Y372500D01*
X37153D01*
Y305637D01*
X37148D01*
X37040Y304822D01*
X36726Y304063D01*
X36610Y303911D01*
X36173Y303724D01*
X36173Y303724D01*
X36173Y303724D01*
X31827D01*
Y299378D01*
X36173D01*
Y301125D01*
X36522Y301269D01*
X37566Y302070D01*
X38368Y303115D01*
X38500Y303435D01*
X39000D01*
X39132Y303115D01*
X39934Y302070D01*
X40978Y301269D01*
X41327Y301125D01*
Y299378D01*
X45673D01*
Y303724D01*
X41327D01*
X41327Y303724D01*
Y303724D01*
X40894Y303906D01*
X40774Y304063D01*
X40460Y304822D01*
X40352Y305637D01*
X40347D01*
Y372500D01*
X40339Y372539D01*
X40510Y374271D01*
X41027Y375974D01*
X41866Y377544D01*
X42995Y378920D01*
X44371Y380049D01*
X45940Y380888D01*
X47644Y381405D01*
X49376Y381575D01*
X49415Y381567D01*
X372000D01*
X372034Y381574D01*
X373314Y381406D01*
X374539Y380898D01*
X375591Y380091D01*
X376398Y379039D01*
X376906Y377815D01*
X377074Y376534D01*
X377067Y376500D01*
Y374923D01*
X377048D01*
X377198Y373401D01*
X377642Y371938D01*
X378362Y370589D01*
X379332Y369407D01*
X380515Y368437D01*
X381863Y367716D01*
X383327Y367272D01*
X384111Y367195D01*
X384405Y366664D01*
X384300Y366411D01*
Y365821D01*
X384526Y365275D01*
X384944Y364858D01*
X385489Y364632D01*
X386080D01*
X386625Y364858D01*
X387043Y365275D01*
X387183Y365614D01*
X387590Y365695D01*
X387659Y365682D01*
X387915Y365508D01*
X388090Y365308D01*
Y362538D01*
X387091D01*
X387056Y362623D01*
X386638Y363040D01*
X386093Y363266D01*
X385503D01*
X384957Y363040D01*
X384540Y362623D01*
X384314Y362077D01*
Y361487D01*
X384540Y360941D01*
X384957Y360524D01*
X385503Y360297D01*
X386093D01*
X386638Y360524D01*
X387056Y360941D01*
X387084Y361009D01*
X388090D01*
Y358498D01*
X387590Y358227D01*
X387484Y358295D01*
X387258Y358841D01*
X386841Y359258D01*
X386295Y359484D01*
X385705D01*
X385159Y359258D01*
X384742Y358841D01*
X384516Y358295D01*
Y357705D01*
X384742Y357159D01*
X385115Y356786D01*
X385088Y356579D01*
X384961Y356286D01*
X380080D01*
X380080Y356286D01*
Y356295D01*
X379278Y356189D01*
X378530Y355880D01*
X377888Y355387D01*
X377396Y354745D01*
X377328Y354583D01*
X377298Y354542D01*
X377184Y354308D01*
X376968Y353897D01*
X376941Y353886D01*
X376927Y353851D01*
X376796Y353751D01*
X376186Y353498D01*
X375918Y353387D01*
X374976Y353263D01*
Y353262D01*
X187798D01*
Y353278D01*
X186099Y353144D01*
X184442Y352746D01*
X182867Y352094D01*
X181414Y351203D01*
X180118Y350097D01*
X179011Y348801D01*
X178121Y347348D01*
X177469Y345773D01*
X177071Y344116D01*
X176937Y342417D01*
X176953D01*
Y305704D01*
X176948D01*
X176839Y304872D01*
X176517Y304096D01*
X176358Y303889D01*
X175906Y303724D01*
X175906Y303724D01*
X175906Y303724D01*
X171560D01*
Y299378D01*
X175906D01*
Y301119D01*
X176288Y301277D01*
X177347Y302090D01*
X178159Y303148D01*
X178300Y303489D01*
X178800D01*
X178941Y303148D01*
X179753Y302090D01*
X180812Y301277D01*
X181194Y301119D01*
Y299378D01*
X185541D01*
Y303724D01*
X181194D01*
X181194Y303724D01*
Y303724D01*
X180747Y303882D01*
X180583Y304096D01*
X180262Y304872D01*
X180152Y305704D01*
X180148D01*
Y342417D01*
X180144Y342433D01*
X180290Y343911D01*
X180725Y345347D01*
X181433Y346670D01*
X182385Y347830D01*
X183545Y348782D01*
X184868Y349489D01*
X186304Y349925D01*
X187782Y350071D01*
X187798Y350067D01*
X376682D01*
Y350051D01*
X377362Y350186D01*
X377655Y350382D01*
X377750Y350428D01*
X378420Y350937D01*
X378424Y350941D01*
X378429Y350943D01*
X378941Y351341D01*
X378999Y351408D01*
X379237Y351590D01*
X379729Y352232D01*
X379797Y352395D01*
X379827Y352435D01*
X380135Y353071D01*
X380184Y353091D01*
X380184Y353092D01*
X385558D01*
X385810Y352595D01*
X385806Y352589D01*
X385591Y352357D01*
X385077D01*
X384532Y352131D01*
X384114Y351714D01*
X383888Y351168D01*
Y350578D01*
X384114Y350032D01*
X384532Y349615D01*
X385077Y349389D01*
X385668D01*
X386213Y349615D01*
X386631Y350032D01*
X386857Y350578D01*
Y351168D01*
X386825Y351244D01*
X387158Y351577D01*
X388090D01*
Y351433D01*
X391994Y351433D01*
X392151Y351433D01*
X392273Y351401D01*
X392494Y351315D01*
X392554Y351271D01*
X392598Y351211D01*
X392683Y350991D01*
X392716Y350869D01*
X392716Y350712D01*
X392716Y346807D01*
X396006D01*
Y346285D01*
X395942Y346258D01*
X395525Y345841D01*
X395299Y345295D01*
Y344705D01*
X395525Y344159D01*
X395942Y343742D01*
X396487Y343516D01*
X397078D01*
X397623Y343742D01*
X398041Y344159D01*
X398224Y344602D01*
X398609Y344669D01*
X398746Y344655D01*
X399159Y344242D01*
X399705Y344016D01*
X400295D01*
X400841Y344242D01*
X401258Y344659D01*
X401484Y345205D01*
Y345537D01*
X401626Y345644D01*
X402126Y345395D01*
Y331829D01*
X402134Y331790D01*
X401963Y330058D01*
X401446Y328355D01*
X400607Y326785D01*
X399478Y325410D01*
X398102Y324281D01*
X396533Y323442D01*
X394830Y322925D01*
X393097Y322754D01*
X393058Y322762D01*
X321415D01*
Y322785D01*
X320176Y322622D01*
X319022Y322144D01*
X318031Y321384D01*
X317271Y320392D01*
X316793Y319238D01*
X316630Y318000D01*
X316653D01*
Y305637D01*
X316648D01*
X316540Y304822D01*
X316226Y304063D01*
X316110Y303911D01*
X315673Y303724D01*
X315673Y303724D01*
X315673Y303724D01*
X311327D01*
Y299378D01*
X315673D01*
Y301125D01*
X316022Y301269D01*
X317066Y302070D01*
X317867Y303115D01*
X318000Y303435D01*
X318500D01*
X318633Y303115D01*
X319434Y302070D01*
X320478Y301269D01*
X320827Y301125D01*
Y299378D01*
X325173D01*
Y303724D01*
X320827D01*
X320827Y303724D01*
Y303724D01*
X320394Y303906D01*
X320274Y304063D01*
X319960Y304822D01*
X319852Y305637D01*
X319847D01*
Y318000D01*
X319849D01*
X319969Y318599D01*
X320308Y319107D01*
X320816Y319446D01*
X321415Y319565D01*
Y319567D01*
X393304D01*
Y319547D01*
X395225Y319699D01*
X397099Y320149D01*
X398880Y320886D01*
X400523Y321893D01*
X401988Y323145D01*
X403240Y324610D01*
X404247Y326254D01*
X404985Y328034D01*
X405435Y329908D01*
X405586Y331829D01*
X405566D01*
Y344217D01*
X406066Y344317D01*
X406206Y343980D01*
X406623Y343562D01*
X407169Y343336D01*
X407759D01*
X408305Y343562D01*
X408722Y343980D01*
X408948Y344525D01*
Y345115D01*
X408722Y345661D01*
X408305Y346078D01*
X407759Y346304D01*
X407664D01*
X407596Y346405D01*
X407799Y346807D01*
X409462D01*
X409669Y346307D01*
X409667Y346305D01*
X409441Y345759D01*
Y345169D01*
X409667Y344623D01*
X410085Y344206D01*
X410630Y343980D01*
X411221D01*
X411766Y344206D01*
X412184Y344623D01*
X412314Y344938D01*
X412701Y344916D01*
X412829Y344874D01*
X413040Y344364D01*
X413458Y343947D01*
X414003Y343721D01*
X414594D01*
X415139Y343947D01*
X415557Y344364D01*
X415783Y344910D01*
Y345113D01*
X415799Y345124D01*
X416299Y344856D01*
Y324829D01*
X416279D01*
X416430Y322908D01*
X416880Y321034D01*
X417618Y319253D01*
X418625Y317610D01*
X419876Y316145D01*
X421342Y314893D01*
X422985Y313886D01*
X424766Y313149D01*
X426640Y312699D01*
X428561Y312547D01*
Y312567D01*
X451390D01*
X451424Y312574D01*
X452704Y312406D01*
X453929Y311898D01*
X454981Y311091D01*
X455788Y310039D01*
X456296Y308815D01*
X456464Y307534D01*
X456457Y307500D01*
Y305614D01*
X456452D01*
X456346Y304806D01*
X456033Y304052D01*
X455931Y303919D01*
X455500Y303724D01*
X455500Y303724D01*
X455500Y303724D01*
X451154D01*
Y299378D01*
X455500D01*
Y301127D01*
X455837Y301266D01*
X456877Y302064D01*
X457675Y303104D01*
X457805Y303417D01*
X458305D01*
X458434Y303104D01*
X459232Y302064D01*
X460272Y301266D01*
X460609Y301127D01*
Y299378D01*
X464956D01*
Y303724D01*
X460609D01*
X460609Y303724D01*
Y303724D01*
X460182Y303914D01*
X460076Y304052D01*
X459764Y304806D01*
X459657Y305614D01*
X459652D01*
Y307500D01*
X459674D01*
X459515Y309116D01*
X459043Y310670D01*
X458278Y312102D01*
X457248Y313358D01*
X455992Y314388D01*
X454560Y315153D01*
X453006Y315625D01*
X451390Y315784D01*
Y315762D01*
X428806D01*
X428767Y315754D01*
X427035Y315925D01*
X425332Y316441D01*
X423762Y317281D01*
X422387Y318409D01*
X421257Y319785D01*
X420418Y321355D01*
X419902Y323058D01*
X419731Y324790D01*
X419739Y324829D01*
Y343255D01*
X420239Y343462D01*
X421103Y342598D01*
X421351Y342432D01*
X421644Y342374D01*
X427912D01*
Y341621D01*
X427912Y341556D01*
X427754Y341122D01*
X425760D01*
X425624Y341258D01*
X425078Y341484D01*
X424487D01*
X423942Y341258D01*
X423525Y340841D01*
X423299Y340295D01*
Y339705D01*
X423525Y339159D01*
X423942Y338742D01*
X424487Y338516D01*
X425078D01*
X425624Y338742D01*
X426166Y338651D01*
X426283Y338500D01*
Y337097D01*
X424319D01*
Y337558D01*
X421153D01*
Y334393D01*
X424319D01*
Y334854D01*
X426283D01*
Y333500D01*
X433283D01*
Y338500D01*
X433576Y338878D01*
X437818D01*
X439161Y337535D01*
Y330000D01*
X439161Y330000D01*
X439247Y329571D01*
X439490Y329207D01*
X444620Y324076D01*
X444620Y324076D01*
X444984Y323833D01*
X445413Y323748D01*
X459032D01*
Y322696D01*
X463379D01*
Y323789D01*
X464812D01*
Y322779D01*
X469158D01*
Y322937D01*
X514553D01*
X515324Y323090D01*
X515978Y323527D01*
X517708Y325257D01*
X518144Y325910D01*
X518298Y326682D01*
Y403500D01*
X518144Y404271D01*
X517708Y404925D01*
X510208Y412425D01*
X509554Y412862D01*
X508783Y413015D01*
X453367D01*
X448958Y417425D01*
X448304Y417862D01*
X447533Y418015D01*
D02*
G37*
G36*
X503784Y378323D02*
X502616D01*
X501488Y378021D01*
X500476Y377436D01*
X499650Y376610D01*
X499065Y375599D01*
X498763Y374470D01*
Y373302D01*
X499065Y372173D01*
X499650Y371162D01*
X500476Y370335D01*
X501488Y369751D01*
X502616Y369449D01*
X503784D01*
X504913Y369751D01*
X505925Y370335D01*
X506751Y371162D01*
X507335Y372173D01*
X507637Y373302D01*
Y374470D01*
X507335Y375599D01*
X506751Y376610D01*
X505925Y377436D01*
X504913Y378021D01*
X503784Y378323D01*
D02*
G37*
G36*
X20110Y369354D02*
X18890D01*
X17711Y369039D01*
X16655Y368428D01*
X15792Y367566D01*
X15182Y366509D01*
X14866Y365331D01*
Y364110D01*
X15182Y362932D01*
X15792Y361875D01*
X16655Y361013D01*
X17711Y360402D01*
X18890Y360087D01*
X20110D01*
X21289Y360402D01*
X22345Y361013D01*
X23208Y361875D01*
X23818Y362932D01*
X24134Y364110D01*
Y365331D01*
X23818Y366509D01*
X23208Y367566D01*
X22345Y368428D01*
X21289Y369039D01*
X20110Y369354D01*
D02*
G37*
G36*
X366564Y379498D02*
X365974D01*
X365428Y379272D01*
X365011Y378855D01*
X364785Y378309D01*
Y377719D01*
X365011Y377173D01*
X365245Y376939D01*
X365097Y376515D01*
X365043Y376433D01*
X364722Y376370D01*
X364426Y376172D01*
X364228Y375876D01*
X364159Y375528D01*
Y373165D01*
X364228Y372817D01*
X364283Y372735D01*
Y369265D01*
X364228Y369184D01*
X364159Y368835D01*
Y366473D01*
X364228Y366124D01*
X364426Y365828D01*
X364722Y365631D01*
X365070Y365562D01*
X365518D01*
Y358408D01*
X365442Y358377D01*
X365024Y357959D01*
X364798Y357414D01*
Y356823D01*
X365024Y356278D01*
X365442Y355860D01*
X365987Y355634D01*
X366578D01*
X367124Y355860D01*
X367541Y356278D01*
X367767Y356823D01*
Y357414D01*
X367541Y357959D01*
X367124Y358377D01*
X367047Y358408D01*
Y365562D01*
X367432D01*
X367781Y365631D01*
X368077Y365828D01*
X368274Y366124D01*
X368344Y366473D01*
Y368835D01*
X368274Y369184D01*
X368220Y369265D01*
Y372735D01*
X368274Y372817D01*
X368344Y373165D01*
Y375528D01*
X368274Y375876D01*
X368077Y376172D01*
X367781Y376370D01*
X367489Y376428D01*
X367390Y376591D01*
X367293Y376939D01*
X367527Y377173D01*
X367753Y377719D01*
Y378309D01*
X367527Y378855D01*
X367110Y379272D01*
X366564Y379498D01*
D02*
G37*
G36*
X359078Y379484D02*
X358487D01*
X357942Y379258D01*
X357524Y378841D01*
X357298Y378295D01*
Y377705D01*
X357524Y377159D01*
X357745Y376939D01*
X357597Y376515D01*
X357543Y376433D01*
X357222Y376370D01*
X356926Y376172D01*
X356728Y375876D01*
X356659Y375528D01*
Y373165D01*
X356728Y372817D01*
X356783Y372735D01*
Y369265D01*
X356728Y369184D01*
X356659Y368835D01*
Y366473D01*
X356728Y366124D01*
X356926Y365828D01*
X357222Y365631D01*
X357570Y365562D01*
X358018D01*
Y358405D01*
X357942Y358374D01*
X357524Y357956D01*
X357298Y357411D01*
Y356820D01*
X357524Y356275D01*
X357942Y355857D01*
X358487Y355631D01*
X359078D01*
X359624Y355857D01*
X360041Y356275D01*
X360267Y356820D01*
Y357411D01*
X360041Y357956D01*
X359624Y358374D01*
X359547Y358405D01*
Y365562D01*
X359932D01*
X360281Y365631D01*
X360577Y365828D01*
X360774Y366124D01*
X360844Y366473D01*
Y368835D01*
X360774Y369184D01*
X360720Y369265D01*
Y372735D01*
X360774Y372817D01*
X360844Y373165D01*
Y375528D01*
X360774Y375876D01*
X360577Y376172D01*
X360281Y376370D01*
X360012Y376423D01*
X359886Y376645D01*
X359821Y376939D01*
X360041Y377159D01*
X360267Y377705D01*
Y378295D01*
X360041Y378841D01*
X359624Y379258D01*
X359078Y379484D01*
D02*
G37*
G36*
X351578D02*
X350987D01*
X350442Y379258D01*
X350024Y378841D01*
X349798Y378295D01*
Y377705D01*
X350024Y377159D01*
X350245Y376939D01*
X350097Y376515D01*
X350043Y376433D01*
X349722Y376370D01*
X349426Y376172D01*
X349228Y375876D01*
X349159Y375528D01*
Y373165D01*
X349228Y372817D01*
X349283Y372735D01*
Y369265D01*
X349228Y369184D01*
X349159Y368835D01*
Y366473D01*
X349228Y366124D01*
X349426Y365828D01*
X349722Y365631D01*
X350070Y365562D01*
X350518D01*
Y358398D01*
X350442Y358366D01*
X350024Y357949D01*
X349798Y357403D01*
Y356813D01*
X350024Y356267D01*
X350442Y355850D01*
X350987Y355624D01*
X351578D01*
X352123Y355850D01*
X352541Y356267D01*
X352767Y356813D01*
Y357403D01*
X352541Y357949D01*
X352123Y358366D01*
X352047Y358398D01*
Y365562D01*
X352432D01*
X352781Y365631D01*
X353077Y365828D01*
X353274Y366124D01*
X353344Y366473D01*
Y368835D01*
X353274Y369184D01*
X353220Y369265D01*
Y372735D01*
X353274Y372817D01*
X353344Y373165D01*
Y375528D01*
X353274Y375876D01*
X353077Y376172D01*
X352781Y376370D01*
X352512Y376423D01*
X352386Y376645D01*
X352321Y376939D01*
X352541Y377159D01*
X352767Y377705D01*
Y378295D01*
X352541Y378841D01*
X352123Y379258D01*
X351578Y379484D01*
D02*
G37*
G36*
X374078D02*
X373487D01*
X372942Y379258D01*
X372524Y378841D01*
X372298Y378295D01*
Y377705D01*
X372524Y377159D01*
X372745Y376939D01*
X372597Y376515D01*
X372543Y376433D01*
X372222Y376370D01*
X371926Y376172D01*
X371728Y375876D01*
X371659Y375528D01*
Y373165D01*
X371728Y372817D01*
X371783Y372735D01*
Y369265D01*
X371728Y369184D01*
X371659Y368835D01*
Y366473D01*
X371728Y366124D01*
X371926Y365828D01*
X372222Y365631D01*
X372570Y365562D01*
X373018D01*
Y358349D01*
X372942Y358317D01*
X372524Y357900D01*
X372298Y357354D01*
Y356764D01*
X372524Y356218D01*
X372942Y355801D01*
X373487Y355575D01*
X374078D01*
X374623Y355801D01*
X375041Y356218D01*
X375267Y356764D01*
Y357354D01*
X375041Y357900D01*
X374623Y358317D01*
X374547Y358349D01*
Y365562D01*
X374933D01*
X375281Y365631D01*
X375577Y365828D01*
X375774Y366124D01*
X375844Y366473D01*
Y368835D01*
X375774Y369184D01*
X375720Y369265D01*
Y372735D01*
X375774Y372817D01*
X375844Y373165D01*
Y375528D01*
X375774Y375876D01*
X375577Y376172D01*
X375281Y376370D01*
X375012Y376423D01*
X374886Y376645D01*
X374821Y376939D01*
X375041Y377159D01*
X375267Y377705D01*
Y378295D01*
X375041Y378841D01*
X374623Y379258D01*
X374078Y379484D01*
D02*
G37*
G36*
X503784Y351551D02*
X502616D01*
X501488Y351249D01*
X500476Y350665D01*
X499650Y349839D01*
X499065Y348827D01*
X498763Y347698D01*
Y346530D01*
X499065Y345402D01*
X499650Y344390D01*
X500476Y343564D01*
X501488Y342980D01*
X502616Y342677D01*
X503784D01*
X504913Y342980D01*
X505925Y343564D01*
X506751Y344390D01*
X507335Y345402D01*
X507637Y346530D01*
Y347698D01*
X507335Y348827D01*
X506751Y349839D01*
X505925Y350665D01*
X504913Y351249D01*
X503784Y351551D01*
D02*
G37*
G36*
X451865Y338283D02*
X450283D01*
Y336700D01*
X451865D01*
Y338283D01*
D02*
G37*
G36*
X449283D02*
X447700D01*
Y336700D01*
X449283D01*
Y338283D01*
D02*
G37*
G36*
X445365D02*
X443783D01*
Y336700D01*
X445365D01*
Y338283D01*
D02*
G37*
G36*
X457365Y338283D02*
X455783D01*
Y336700D01*
X457365D01*
Y338283D01*
D02*
G37*
G36*
X454783D02*
X453200D01*
Y336700D01*
X454783D01*
Y338283D01*
D02*
G37*
G36*
X451865Y335700D02*
X450283D01*
Y334117D01*
X451865D01*
Y335700D01*
D02*
G37*
G36*
X449283D02*
X447700D01*
Y334117D01*
X449283D01*
Y335700D01*
D02*
G37*
G36*
X445365Y335700D02*
X443783D01*
Y334117D01*
X445365D01*
Y335700D01*
D02*
G37*
G36*
X457365Y335700D02*
X455783D01*
Y334117D01*
X457365D01*
Y335700D01*
D02*
G37*
G36*
X454783D02*
X453200D01*
Y334117D01*
X454783D01*
Y335700D01*
D02*
G37*
G36*
X233500Y336000D02*
X230000D01*
Y333500D01*
X233500D01*
Y336000D01*
D02*
G37*
G36*
X229000D02*
X225500D01*
Y333500D01*
X229000D01*
Y336000D01*
D02*
G37*
G36*
X424819Y333458D02*
X423236D01*
Y331875D01*
X424819D01*
Y333458D01*
D02*
G37*
G36*
X422236D02*
X420653D01*
Y331875D01*
X422236D01*
Y333458D01*
D02*
G37*
G36*
X233500Y332500D02*
X230000D01*
Y330000D01*
X233500D01*
Y332500D01*
D02*
G37*
G36*
X229000D02*
X225500D01*
Y330000D01*
X229000D01*
Y332500D01*
D02*
G37*
G36*
X424819Y330875D02*
X423236D01*
Y329293D01*
X424819D01*
Y330875D01*
D02*
G37*
G36*
X422236D02*
X420653D01*
Y329293D01*
X422236D01*
Y330875D01*
D02*
G37*
G36*
X433783Y331000D02*
X430283D01*
Y328500D01*
X433783D01*
Y331000D01*
D02*
G37*
G36*
X429283D02*
X425783D01*
Y328500D01*
X429283D01*
Y331000D01*
D02*
G37*
G36*
X433783Y327500D02*
X430283D01*
Y325000D01*
X433783D01*
Y327500D01*
D02*
G37*
G36*
X429283D02*
X425783D01*
Y325000D01*
X429283D01*
Y327500D01*
D02*
G37*
G36*
X194000Y327000D02*
X190500D01*
Y324500D01*
X194000D01*
Y327000D01*
D02*
G37*
G36*
X189500D02*
X186000D01*
Y324500D01*
X189500D01*
Y327000D01*
D02*
G37*
G36*
X194000Y323500D02*
X190500D01*
Y321000D01*
X194000D01*
Y323500D01*
D02*
G37*
G36*
X189500D02*
X186000D01*
Y321000D01*
X189500D01*
Y323500D01*
D02*
G37*
G36*
X467485Y321523D02*
Y319350D01*
X469658D01*
Y321523D01*
X467485D01*
D02*
G37*
G36*
X460705Y321440D02*
X458532D01*
Y319267D01*
X460705D01*
Y321440D01*
D02*
G37*
G36*
X278264Y322256D02*
X275500D01*
Y319000D01*
X278264D01*
Y322256D01*
D02*
G37*
G36*
X229500Y327517D02*
X229415Y327500D01*
X226000D01*
Y322500D01*
X226983D01*
Y318349D01*
X226151Y317517D01*
X221741D01*
Y317911D01*
X221660Y318318D01*
X221430Y318662D01*
X221085Y318892D01*
X220679Y318973D01*
X217431D01*
X217025Y318892D01*
X216680Y318662D01*
X216450Y318318D01*
X216369Y317911D01*
Y312104D01*
X216450Y311698D01*
X216538Y311566D01*
Y289598D01*
X210457Y283517D01*
X206017D01*
Y306000D01*
X205825Y306963D01*
X205280Y307780D01*
X204463Y308325D01*
X203500Y308517D01*
X202537Y308325D01*
X201720Y307780D01*
X201175Y306963D01*
X200983Y306000D01*
Y281000D01*
X201175Y280037D01*
X201720Y279220D01*
X202537Y278675D01*
X203500Y278483D01*
X211500D01*
X212463Y278675D01*
X213280Y279220D01*
X220835Y286775D01*
X221380Y287592D01*
X221572Y288555D01*
Y311566D01*
X221660Y311698D01*
X221741Y312104D01*
Y312483D01*
X227194D01*
X228157Y312675D01*
X228973Y313220D01*
X231280Y315527D01*
X231825Y316343D01*
X232017Y317306D01*
Y322500D01*
X233000D01*
Y327500D01*
X229585D01*
X229500Y327517D01*
D02*
G37*
G36*
X469658Y318350D02*
X467485D01*
Y316176D01*
X469658D01*
Y318350D01*
D02*
G37*
G36*
X460705Y318267D02*
X458532D01*
Y316094D01*
X460705D01*
Y318267D01*
D02*
G37*
G36*
X464312Y321523D02*
X463846Y321440D01*
X463812Y321440D01*
X461705D01*
Y318767D01*
Y316094D01*
X463846D01*
X463879Y316094D01*
X464344Y316176D01*
X464379Y316176D01*
X466485D01*
Y318850D01*
Y321523D01*
X464344D01*
X464312Y321523D01*
D02*
G37*
G36*
X202569Y319483D02*
X201445D01*
Y315508D01*
X204140D01*
Y317911D01*
X204021Y318513D01*
X203680Y319023D01*
X203170Y319363D01*
X202569Y319483D01*
D02*
G37*
G36*
X200445D02*
X199321D01*
X198720Y319363D01*
X198210Y319023D01*
X197869Y318513D01*
X197749Y317911D01*
Y315508D01*
X200445D01*
Y319483D01*
D02*
G37*
G36*
X278264Y318000D02*
X275500D01*
Y314744D01*
X278264D01*
Y318000D01*
D02*
G37*
G36*
X274500Y322256D02*
X271736D01*
Y322143D01*
X271465Y321756D01*
X271236Y321756D01*
X265937D01*
Y320515D01*
X255000D01*
X254986Y320512D01*
X253121Y320366D01*
X251288Y319925D01*
X249546Y319204D01*
X247939Y318219D01*
X246505Y316995D01*
X245281Y315561D01*
X244296Y313954D01*
X243575Y312212D01*
X243134Y310379D01*
X242988Y308514D01*
X242985Y308500D01*
Y298500D01*
X243138Y297729D01*
X243575Y297075D01*
X244229Y296638D01*
X245000Y296485D01*
X245771Y296638D01*
X246425Y297075D01*
X246862Y297729D01*
X247015Y298500D01*
Y308500D01*
X246997Y308592D01*
X247142Y310063D01*
X247598Y311566D01*
X248338Y312951D01*
X249335Y314165D01*
X250549Y315162D01*
X251934Y315902D01*
X253437Y316358D01*
X254908Y316503D01*
X255000Y316485D01*
X260172D01*
X260379Y315985D01*
X259995Y315601D01*
X259610Y314672D01*
Y313667D01*
X259995Y312738D01*
X260706Y312027D01*
X261635Y311642D01*
X262641D01*
X263569Y312027D01*
X264281Y312738D01*
X264665Y313667D01*
Y314672D01*
X264281Y315601D01*
X263897Y315985D01*
X264104Y316485D01*
X265937D01*
Y315244D01*
X271236D01*
X271465Y315244D01*
X271736Y314857D01*
Y314744D01*
X274500D01*
Y318500D01*
Y322256D01*
D02*
G37*
G36*
X281853Y316697D02*
X280848D01*
X279919Y316312D01*
X279208Y315601D01*
X278823Y314672D01*
Y313667D01*
X279208Y312738D01*
X279919Y312027D01*
X280848Y311642D01*
X281853D01*
X282782Y312027D01*
X283493Y312738D01*
X283878Y313667D01*
Y314672D01*
X283493Y315601D01*
X282782Y316312D01*
X281853Y316697D01*
D02*
G37*
G36*
X216029Y344964D02*
X203972D01*
X203440Y344858D01*
X202990Y344557D01*
X202689Y344107D01*
X202584Y343576D01*
Y343509D01*
X192798D01*
X191835Y343317D01*
X191019Y342772D01*
X188220Y339973D01*
X187675Y339157D01*
X187483Y338194D01*
Y334500D01*
X186500D01*
Y329500D01*
X189915D01*
X190000Y329483D01*
X190085Y329500D01*
X193500D01*
Y334500D01*
X192517D01*
Y337151D01*
X193841Y338475D01*
X202584D01*
Y338408D01*
X202689Y337877D01*
X202990Y337427D01*
X203440Y337126D01*
X203972Y337021D01*
X208487D01*
Y318973D01*
X208376D01*
X207970Y318892D01*
X207625Y318662D01*
X207395Y318318D01*
X207314Y317911D01*
Y312104D01*
X207395Y311698D01*
X207625Y311354D01*
X207970Y311123D01*
X208376Y311043D01*
X211624D01*
X212030Y311123D01*
X212375Y311354D01*
X212605Y311698D01*
X212686Y312104D01*
Y317911D01*
X212605Y318318D01*
X212375Y318662D01*
X212030Y318892D01*
X211624Y318973D01*
X211513D01*
Y337021D01*
X216029D01*
X216560Y337126D01*
X217010Y337427D01*
X217311Y337877D01*
X217416Y338408D01*
Y339487D01*
X268500D01*
X268646Y339516D01*
X268795D01*
X268933Y339573D01*
X269079Y339602D01*
X269203Y339685D01*
X269341Y339742D01*
X269446Y339847D01*
X269570Y339930D01*
X269653Y340054D01*
X269758Y340159D01*
X269815Y340297D01*
X269898Y340421D01*
X269927Y340567D01*
X269984Y340705D01*
Y340854D01*
X270013Y341000D01*
X269984Y341146D01*
Y341295D01*
X269927Y341433D01*
X269898Y341579D01*
X269815Y341703D01*
X269758Y341841D01*
X269653Y341946D01*
X269570Y342070D01*
X269446Y342153D01*
X269341Y342258D01*
X269203Y342315D01*
X269079Y342398D01*
X268933Y342427D01*
X268795Y342484D01*
X268646D01*
X268500Y342513D01*
X217416D01*
Y343576D01*
X217311Y344107D01*
X217010Y344557D01*
X216560Y344858D01*
X216029Y344964D01*
D02*
G37*
G36*
X204140Y314508D02*
X201445D01*
Y310533D01*
X202569D01*
X203170Y310652D01*
X203680Y310993D01*
X204021Y311503D01*
X204140Y312104D01*
Y314508D01*
D02*
G37*
G36*
X200445D02*
X197749D01*
Y312104D01*
X197869Y311503D01*
X198210Y310993D01*
X198720Y310652D01*
X199321Y310533D01*
X200445D01*
Y314508D01*
D02*
G37*
G36*
X271465Y313094D02*
X265937D01*
Y306583D01*
X267188D01*
Y304710D01*
X267185Y304703D01*
X267102Y304579D01*
X267073Y304433D01*
X267016Y304295D01*
Y304146D01*
X266987Y304000D01*
X267016Y303854D01*
Y303705D01*
X267073Y303567D01*
X267102Y303421D01*
X267185Y303297D01*
X267242Y303159D01*
X267347Y303054D01*
X267430Y302930D01*
X267554Y302847D01*
X267659Y302742D01*
X267797Y302685D01*
X267921Y302602D01*
X268067Y302573D01*
X268205Y302516D01*
X268354D01*
X268500Y302487D01*
X268646Y302516D01*
X268795D01*
X268933Y302573D01*
X269079Y302602D01*
X269203Y302685D01*
X269341Y302742D01*
X269446Y302847D01*
X269570Y302930D01*
X269771Y303131D01*
X269771Y303131D01*
X270099Y303622D01*
X270214Y304201D01*
Y306583D01*
X271465D01*
Y313094D01*
D02*
G37*
G36*
X45673Y297622D02*
X41327D01*
Y296381D01*
X39900D01*
X39544Y296310D01*
X39241Y296108D01*
X39084Y295951D01*
X38750Y295627D01*
X38416Y295951D01*
X38259Y296108D01*
X37956Y296310D01*
X37600Y296381D01*
X36173D01*
Y297622D01*
X31827D01*
Y293276D01*
X36173D01*
Y294516D01*
X37153D01*
Y292099D01*
X36675Y291901D01*
X36257Y291484D01*
X36031Y290938D01*
Y290348D01*
X36257Y289802D01*
X36675Y289385D01*
X37220Y289159D01*
X37811D01*
X38357Y289385D01*
X38750Y289778D01*
X39143Y289385D01*
X39689Y289159D01*
X40279D01*
X40825Y289385D01*
X41243Y289802D01*
X41469Y290348D01*
Y290938D01*
X41243Y291484D01*
X40825Y291901D01*
X40365Y292092D01*
X40347Y292109D01*
Y294516D01*
X41327D01*
Y293276D01*
X45673D01*
Y297622D01*
D02*
G37*
G36*
X185541D02*
X181194D01*
Y295834D01*
X181099Y295795D01*
X180160Y295074D01*
X179439Y294134D01*
X178986Y293040D01*
X178831Y291866D01*
X178852D01*
Y290179D01*
X178550Y290004D01*
X178249Y290179D01*
Y291866D01*
X178269D01*
X178115Y293040D01*
X177662Y294134D01*
X176941Y295074D01*
X176001Y295795D01*
X175906Y295834D01*
Y297622D01*
X171560D01*
Y293276D01*
X175906D01*
X176148Y292876D01*
X176284Y292549D01*
X176374Y291866D01*
X176383D01*
Y289706D01*
X176058Y289380D01*
X175832Y288835D01*
Y288244D01*
X176058Y287699D01*
X176475Y287281D01*
X177021Y287055D01*
X177611D01*
X178157Y287281D01*
X178550Y287675D01*
X178944Y287281D01*
X179489Y287055D01*
X180080D01*
X180625Y287281D01*
X181043Y287699D01*
X181269Y288244D01*
Y288835D01*
X181043Y289380D01*
X180717Y289706D01*
Y291866D01*
X180727D01*
X180816Y292549D01*
X180952Y292876D01*
X181194Y293276D01*
X185541D01*
Y297622D01*
D02*
G37*
G36*
X325173D02*
X320827D01*
Y295827D01*
X320773Y295805D01*
X319851Y295097D01*
X319143Y294175D01*
X318698Y293101D01*
X318546Y291948D01*
X318566D01*
Y290179D01*
X318265Y290004D01*
X317963Y290179D01*
Y291918D01*
X317984D01*
X317831Y293079D01*
X317383Y294160D01*
X316670Y295089D01*
X315742Y295801D01*
X315673Y295830D01*
Y297622D01*
X311327D01*
Y293276D01*
X315673D01*
X315886Y292864D01*
X316000Y292588D01*
X316088Y291918D01*
X316098D01*
Y289706D01*
X315772Y289380D01*
X315546Y288835D01*
Y288244D01*
X315772Y287699D01*
X316190Y287281D01*
X316735Y287055D01*
X317326D01*
X317871Y287281D01*
X318265Y287675D01*
X318658Y287281D01*
X319204Y287055D01*
X319794D01*
X320340Y287281D01*
X320757Y287699D01*
X320983Y288244D01*
Y288835D01*
X320757Y289380D01*
X320432Y289706D01*
Y291948D01*
X320423Y291992D01*
X320611Y292937D01*
X320837Y293276D01*
X325173D01*
Y297622D01*
D02*
G37*
G36*
X464956D02*
X460609D01*
Y295827D01*
X460560Y295806D01*
X459639Y295099D01*
X458932Y294178D01*
X458488Y293106D01*
X458336Y291955D01*
X458356D01*
Y290179D01*
X458055Y290004D01*
X457753Y290179D01*
Y291955D01*
X457773D01*
X457622Y293106D01*
X457177Y294178D01*
X456471Y295099D01*
X455550Y295806D01*
X455500Y295827D01*
Y297622D01*
X451154D01*
Y293276D01*
X455486D01*
X455709Y292942D01*
X455897Y291999D01*
X455888Y291955D01*
Y289706D01*
X455562Y289380D01*
X455336Y288835D01*
Y288244D01*
X455562Y287699D01*
X455980Y287281D01*
X456525Y287055D01*
X457116D01*
X457661Y287281D01*
X458055Y287675D01*
X458448Y287281D01*
X458994Y287055D01*
X459584D01*
X460130Y287281D01*
X460547Y287699D01*
X460773Y288244D01*
Y288835D01*
X460547Y289380D01*
X460222Y289706D01*
Y291955D01*
X460213Y291999D01*
X460400Y292942D01*
X460623Y293276D01*
X464956D01*
Y297622D01*
D02*
G37*
G36*
X412000Y293515D02*
X388500D01*
X387729Y293362D01*
X387075Y292925D01*
X386638Y292271D01*
X386485Y291500D01*
X386638Y290729D01*
X387075Y290075D01*
X387729Y289638D01*
X388500Y289485D01*
X412000D01*
X412771Y289638D01*
X413425Y290075D01*
X413862Y290729D01*
X414015Y291500D01*
X413862Y292271D01*
X413425Y292925D01*
X412771Y293362D01*
X412000Y293515D01*
D02*
G37*
G36*
X277764Y313094D02*
X272236D01*
Y306583D01*
X272985D01*
Y293515D01*
X253500D01*
X252729Y293362D01*
X252075Y292925D01*
X251638Y292271D01*
X251485Y291500D01*
X251638Y290729D01*
X252075Y290075D01*
X252729Y289638D01*
X253500Y289485D01*
X275000D01*
X275771Y289638D01*
X276425Y290075D01*
X276862Y290729D01*
X277015Y291500D01*
Y306583D01*
X277764D01*
Y313094D01*
D02*
G37*
G36*
X487000Y316017D02*
X486037Y315825D01*
X485220Y315280D01*
X484675Y314463D01*
X484483Y313500D01*
Y281000D01*
X484675Y280037D01*
X485220Y279220D01*
X486037Y278675D01*
X487000Y278483D01*
X487963Y278675D01*
X488780Y279220D01*
X489325Y280037D01*
X489517Y281000D01*
Y313500D01*
X489325Y314463D01*
X488780Y315280D01*
X487963Y315825D01*
X487000Y316017D01*
D02*
G37*
G36*
X351000D02*
X350037Y315825D01*
X349220Y315280D01*
X348675Y314463D01*
X348483Y313500D01*
Y281000D01*
X348675Y280037D01*
X349220Y279220D01*
X350037Y278675D01*
X351000Y278483D01*
X351963Y278675D01*
X352780Y279220D01*
X353325Y280037D01*
X353517Y281000D01*
Y313500D01*
X353325Y314463D01*
X352780Y315280D01*
X351963Y315825D01*
X351000Y316017D01*
D02*
G37*
G36*
X539000Y165015D02*
X538229Y164862D01*
X537575Y164425D01*
X537138Y163771D01*
X536985Y163000D01*
Y143000D01*
X537138Y142229D01*
X537575Y141575D01*
X538229Y141138D01*
X539000Y140985D01*
X539771Y141138D01*
X540425Y141575D01*
X540862Y142229D01*
X541015Y143000D01*
Y163000D01*
X540862Y163771D01*
X540425Y164425D01*
X539771Y164862D01*
X539000Y165015D01*
D02*
G37*
G36*
X261000Y168515D02*
X260229Y168362D01*
X259575Y167925D01*
X259138Y167271D01*
X258985Y166500D01*
Y142000D01*
X259138Y141229D01*
X259575Y140575D01*
X260229Y140138D01*
X261000Y139985D01*
X261771Y140138D01*
X262425Y140575D01*
X262862Y141229D01*
X263015Y142000D01*
Y166500D01*
X262862Y167271D01*
X262425Y167925D01*
X261771Y168362D01*
X261000Y168515D01*
D02*
G37*
G36*
X401000Y162015D02*
X400229Y161862D01*
X399575Y161425D01*
X399138Y160771D01*
X398985Y160000D01*
Y141000D01*
X399138Y140229D01*
X399575Y139575D01*
X400229Y139138D01*
X401000Y138985D01*
X401771Y139138D01*
X402425Y139575D01*
X402862Y140229D01*
X403015Y141000D01*
Y160000D01*
X402862Y160771D01*
X402425Y161425D01*
X401771Y161862D01*
X401000Y162015D01*
D02*
G37*
G36*
X524564Y275689D02*
X431564D01*
X431182Y275530D01*
X431023Y275147D01*
Y36647D01*
X431182Y36265D01*
X431564Y36106D01*
X524564D01*
X524947Y36265D01*
X525105Y36647D01*
Y275147D01*
X524947Y275530D01*
X524564Y275689D01*
D02*
G37*
G36*
X384833D02*
X291833D01*
X291451Y275530D01*
X291292Y275147D01*
Y36647D01*
X291451Y36265D01*
X291833Y36106D01*
X384833D01*
X385216Y36265D01*
X385374Y36647D01*
Y275147D01*
X385216Y275530D01*
X384833Y275689D01*
D02*
G37*
G36*
X245576D02*
X152576D01*
X152193Y275530D01*
X152035Y275147D01*
Y36647D01*
X152193Y36265D01*
X152576Y36106D01*
X245576D01*
X245959Y36265D01*
X246117Y36647D01*
Y275147D01*
X245959Y275530D01*
X245576Y275689D01*
D02*
G37*
G36*
X106576D02*
X13576D01*
X13194Y275530D01*
X13035Y275147D01*
Y36647D01*
X13194Y36265D01*
X13576Y36106D01*
X106576D01*
X106959Y36265D01*
X107117Y36647D01*
Y275147D01*
X106959Y275530D01*
X106576Y275689D01*
D02*
G37*
G36*
X227583Y19390D02*
X224130D01*
Y12000D01*
X227583D01*
Y19390D01*
D02*
G37*
G36*
X206323D02*
X202870D01*
Y12000D01*
X206323D01*
Y19390D01*
D02*
G37*
G36*
X89583D02*
X86130D01*
Y12000D01*
X89583D01*
Y19390D01*
D02*
G37*
G36*
X68323D02*
X64870D01*
Y12000D01*
X68323D01*
Y19390D01*
D02*
G37*
G36*
X504083D02*
X500630D01*
Y12000D01*
X504083D01*
Y19390D01*
D02*
G37*
G36*
X482823D02*
X479370D01*
Y12000D01*
X482823D01*
Y19390D01*
D02*
G37*
G36*
X365583D02*
X362130D01*
Y12000D01*
X365583D01*
Y19390D01*
D02*
G37*
G36*
X344323D02*
X340870D01*
Y12000D01*
X344323D01*
Y19390D01*
D02*
G37*
G36*
X223130D02*
X219677D01*
Y12000D01*
X223130D01*
Y19390D01*
D02*
G37*
G36*
X201870D02*
X198417D01*
Y12000D01*
X201870D01*
Y19390D01*
D02*
G37*
G36*
X85130D02*
X81677D01*
Y12000D01*
X85130D01*
Y19390D01*
D02*
G37*
G36*
X63870D02*
X60417D01*
Y12000D01*
X63870D01*
Y19390D01*
D02*
G37*
G36*
X499630D02*
X496177D01*
Y12000D01*
X499630D01*
Y19390D01*
D02*
G37*
G36*
X478370D02*
X474917D01*
Y12000D01*
X478370D01*
Y19390D01*
D02*
G37*
G36*
X361130D02*
X357677D01*
Y12000D01*
X361130D01*
Y19390D01*
D02*
G37*
G36*
X339870D02*
X336417D01*
Y12000D01*
X339870D01*
Y19390D01*
D02*
G37*
G36*
X489795Y23484D02*
X489205D01*
X488659Y23258D01*
X488242Y22841D01*
X488016Y22295D01*
Y21705D01*
X488060Y21598D01*
Y18890D01*
X486047D01*
Y4110D01*
X492953D01*
Y18890D01*
X490940D01*
Y21598D01*
X490984Y21705D01*
Y22295D01*
X490758Y22841D01*
X490341Y23258D01*
X489795Y23484D01*
D02*
G37*
G36*
X351295D02*
X350705D01*
X350159Y23258D01*
X349742Y22841D01*
X349516Y22295D01*
Y21705D01*
X349560Y21598D01*
Y18890D01*
X347547D01*
Y4110D01*
X354453D01*
Y18890D01*
X352440D01*
Y21598D01*
X352484Y21705D01*
Y22295D01*
X352258Y22841D01*
X351841Y23258D01*
X351295Y23484D01*
D02*
G37*
G36*
X213295Y23984D02*
X212705D01*
X212159Y23758D01*
X211742Y23341D01*
X211516Y22795D01*
Y22205D01*
X211560Y22098D01*
Y18890D01*
X209547D01*
Y4110D01*
X216453D01*
Y18890D01*
X214440D01*
Y22098D01*
X214484Y22205D01*
Y22795D01*
X214258Y23341D01*
X213841Y23758D01*
X213295Y23984D01*
D02*
G37*
G36*
X75295D02*
X74705D01*
X74159Y23758D01*
X73742Y23341D01*
X73516Y22795D01*
Y22205D01*
X73560Y22098D01*
Y18890D01*
X71547D01*
Y4110D01*
X78453D01*
Y18890D01*
X76440D01*
Y22098D01*
X76484Y22205D01*
Y22795D01*
X76258Y23341D01*
X75841Y23758D01*
X75295Y23984D01*
D02*
G37*
G36*
X504083Y11000D02*
X500630D01*
Y3610D01*
X504083D01*
Y11000D01*
D02*
G37*
G36*
X499630D02*
X496177D01*
Y3610D01*
X499630D01*
Y11000D01*
D02*
G37*
G36*
X482823D02*
X479370D01*
Y3610D01*
X482823D01*
Y11000D01*
D02*
G37*
G36*
X478370D02*
X474917D01*
Y3610D01*
X478370D01*
Y11000D01*
D02*
G37*
G36*
X365583D02*
X362130D01*
Y3610D01*
X365583D01*
Y11000D01*
D02*
G37*
G36*
X361130D02*
X357677D01*
Y3610D01*
X361130D01*
Y11000D01*
D02*
G37*
G36*
X344323D02*
X340870D01*
Y3610D01*
X344323D01*
Y11000D01*
D02*
G37*
G36*
X339870D02*
X336417D01*
Y3610D01*
X339870D01*
Y11000D01*
D02*
G37*
G36*
X227583D02*
X224130D01*
Y3610D01*
X227583D01*
Y11000D01*
D02*
G37*
G36*
X223130D02*
X219677D01*
Y3610D01*
X223130D01*
Y11000D01*
D02*
G37*
G36*
X206323D02*
X202870D01*
Y3610D01*
X206323D01*
Y11000D01*
D02*
G37*
G36*
X201870D02*
X198417D01*
Y3610D01*
X201870D01*
Y11000D01*
D02*
G37*
G36*
X89583D02*
X86130D01*
Y3610D01*
X89583D01*
Y11000D01*
D02*
G37*
G36*
X85130D02*
X81677D01*
Y3610D01*
X85130D01*
Y11000D01*
D02*
G37*
G36*
X68323D02*
X64870D01*
Y3610D01*
X68323D01*
Y11000D01*
D02*
G37*
G36*
X63870D02*
X60417D01*
Y3610D01*
X63870D01*
Y11000D01*
D02*
G37*
%LPD*%
G36*
X431376Y394566D02*
X431494Y394266D01*
X431298Y393795D01*
Y393205D01*
X431525Y392659D01*
X431942Y392242D01*
X432487Y392016D01*
X433078D01*
X433624Y392242D01*
X434041Y392659D01*
X434073Y392735D01*
X440966D01*
X442518Y391183D01*
Y389790D01*
X442442Y389758D01*
X442025Y389341D01*
X441798Y388795D01*
Y388773D01*
X441298Y388566D01*
X440323Y389541D01*
X440075Y389706D01*
X439783Y389765D01*
X438665D01*
Y390583D01*
X435500D01*
Y387417D01*
X438665D01*
Y388235D01*
X439466D01*
X440818Y386883D01*
Y382583D01*
X440000D01*
Y379417D01*
X443165D01*
Y380235D01*
X445466D01*
X446477Y379224D01*
X446270Y378724D01*
X434559D01*
X433975Y379308D01*
X433726Y379474D01*
X433434Y379532D01*
X431361D01*
X431115Y380032D01*
X431271Y380235D01*
X435400D01*
Y379417D01*
X438565D01*
Y382583D01*
X435400D01*
Y381765D01*
X431498D01*
X431307Y382227D01*
X432163Y383082D01*
X432601D01*
X432942Y382742D01*
X433488Y382516D01*
X434078D01*
X434623Y382742D01*
X435041Y383159D01*
X435267Y383705D01*
Y384295D01*
X435041Y384841D01*
X434623Y385258D01*
X434078Y385484D01*
X433488D01*
X432942Y385258D01*
X432601Y384918D01*
X431783D01*
X431432Y384848D01*
X431066Y385182D01*
X431058Y385199D01*
X431267Y385705D01*
Y386295D01*
X431041Y386841D01*
X430965Y386917D01*
X431172Y387417D01*
X434065D01*
Y390583D01*
X430900D01*
Y389529D01*
X425118D01*
X424911Y390030D01*
X425041Y390159D01*
X425267Y390705D01*
Y391295D01*
X425041Y391841D01*
X424623Y392258D01*
X424078Y392484D01*
X423488D01*
X422942Y392258D01*
X422524Y391841D01*
X422493Y391765D01*
X421283D01*
X420990Y391706D01*
X420742Y391541D01*
X420729Y391528D01*
X420447Y391636D01*
X420267Y391773D01*
Y392295D01*
X420041Y392841D01*
X419624Y393258D01*
X419470Y393322D01*
X419323Y393541D01*
X419075Y393706D01*
X418783Y393765D01*
X418490Y393706D01*
X418242Y393541D01*
X418096Y393322D01*
X417942Y393258D01*
X417524Y392841D01*
X417299Y392295D01*
Y391705D01*
X417472Y391286D01*
X417349Y391080D01*
X417196Y391049D01*
X416815Y391067D01*
X416397Y391485D01*
X415852Y391711D01*
X415766D01*
X415306Y391909D01*
X415306Y392173D01*
Y392499D01*
X415080Y393044D01*
X414663Y393462D01*
X414117Y393688D01*
X413527D01*
X412981Y393462D01*
X412564Y393044D01*
X412338Y392499D01*
Y392372D01*
X412152Y391910D01*
X411602D01*
X411462Y392046D01*
X411257Y392325D01*
X411597Y392963D01*
X412709Y394317D01*
X412740Y394338D01*
X413168Y394766D01*
X431243D01*
X431376Y394566D01*
D02*
G37*
G36*
X443974Y394762D02*
X445133Y394648D01*
X446247Y394309D01*
X447274Y393760D01*
X447591Y393500D01*
X447568Y393212D01*
X447730Y391163D01*
X448209Y389164D01*
X448996Y387265D01*
X450070Y385512D01*
X451088Y384321D01*
X451405Y383949D01*
X451410Y383945D01*
X451773Y383615D01*
X452525Y382863D01*
X452525Y382859D01*
X452523Y382856D01*
X453106Y382408D01*
X453795Y382123D01*
X454535Y382026D01*
Y382033D01*
X457400Y382033D01*
Y380265D01*
X447600D01*
X446323Y381541D01*
X446075Y381707D01*
X445783Y381765D01*
X443165D01*
Y382583D01*
X442347D01*
Y386740D01*
X442847Y387074D01*
X442987Y387016D01*
X443578D01*
X444124Y387242D01*
X444541Y387659D01*
X444767Y388205D01*
Y388795D01*
X444541Y389341D01*
X444124Y389758D01*
X444047Y389790D01*
Y391500D01*
X444047Y391500D01*
X443989Y391793D01*
X443823Y392041D01*
X441823Y394041D01*
X441575Y394207D01*
X441283Y394265D01*
X434609D01*
X434607Y394266D01*
X434610Y394393D01*
X434879Y394766D01*
X443974D01*
Y394762D01*
D02*
G37*
G36*
X464318Y375431D02*
Y372083D01*
X463500D01*
Y368917D01*
X464318D01*
Y367617D01*
X462466Y365765D01*
X450100D01*
X446323Y369541D01*
X446075Y369707D01*
X445783Y369765D01*
X443165D01*
Y370583D01*
X440000D01*
Y367417D01*
X443165D01*
Y368235D01*
X445466D01*
X449242Y364459D01*
X449242Y364459D01*
X449490Y364294D01*
X449783Y364235D01*
X450283D01*
X450475Y363773D01*
X449242Y362541D01*
X449076Y362293D01*
X449018Y362000D01*
Y358817D01*
X447966Y357765D01*
X443165D01*
Y358583D01*
X440000D01*
Y355417D01*
X443165D01*
Y356235D01*
X448283D01*
X448518Y356282D01*
X448637Y356251D01*
X449018Y355988D01*
Y352383D01*
X448200D01*
Y351922D01*
X438820D01*
X438050Y352692D01*
Y352885D01*
X437824Y353430D01*
X437406Y353848D01*
X436861Y354074D01*
X436270D01*
X435725Y353848D01*
X435547Y353671D01*
X435047Y353878D01*
Y355063D01*
X435400Y355417D01*
X438565D01*
Y358583D01*
X435400D01*
Y358583D01*
X434963Y358401D01*
X432853Y360511D01*
X433060Y361011D01*
X433492D01*
X433785Y361069D01*
X434033Y361235D01*
X434900Y362102D01*
X435400Y361914D01*
Y361417D01*
X438565D01*
Y364583D01*
X435418D01*
X435239Y364671D01*
X434991Y364803D01*
X435047Y365086D01*
X435047Y365086D01*
Y367063D01*
X435400Y367417D01*
X438565D01*
Y370583D01*
X436600D01*
X436409Y371045D01*
X437524Y372159D01*
X437689Y372407D01*
X437747Y372700D01*
X437747Y372700D01*
Y373417D01*
X438565D01*
Y376583D01*
X435400D01*
Y376583D01*
X434900Y376351D01*
X434578Y376484D01*
X433988D01*
X433442Y376258D01*
X433025Y375841D01*
X433012Y375812D01*
X432426D01*
X432092Y376311D01*
X432164Y376485D01*
Y377075D01*
X431987Y377503D01*
X432209Y378003D01*
X433117D01*
X433701Y377419D01*
X433949Y377253D01*
X434242Y377195D01*
X434242Y377195D01*
X439046D01*
X439500Y377083D01*
X439500Y376695D01*
Y375500D01*
X441583D01*
X443665D01*
X443665Y377083D01*
X444119Y377195D01*
X458007D01*
X459518Y375683D01*
Y372083D01*
X458900D01*
Y368917D01*
X462065D01*
Y372083D01*
X461048D01*
Y376000D01*
X460989Y376293D01*
X460823Y376541D01*
X459129Y378235D01*
X459336Y378735D01*
X461013D01*
X464318Y375431D01*
D02*
G37*
G36*
X422967Y381685D02*
X423129Y381462D01*
Y379780D01*
Y375055D01*
Y370331D01*
Y365606D01*
Y360882D01*
Y356158D01*
Y351538D01*
X422967Y351315D01*
X422745Y351154D01*
X393166D01*
X393001Y351154D01*
X392879Y351186D01*
X392658Y351272D01*
X392598Y351315D01*
X392554Y351376D01*
X392469Y351596D01*
X392436Y351718D01*
X392436Y351875D01*
Y357732D01*
Y362457D01*
Y367181D01*
Y370815D01*
X392936Y370967D01*
X393062Y370779D01*
X393392Y370558D01*
X393783Y370480D01*
X394086D01*
Y367000D01*
X407283D01*
Y380197D01*
X394086D01*
Y372520D01*
X393783D01*
X393392Y372442D01*
X393062Y372221D01*
X392936Y372033D01*
X392436Y372185D01*
Y376630D01*
Y381462D01*
X392598Y381685D01*
X392821Y381847D01*
X422745D01*
X422967Y381685D01*
D02*
G37*
G36*
X430682Y350519D02*
Y348836D01*
X430740Y348543D01*
X430906Y348295D01*
X432830Y346371D01*
X432798Y346295D01*
Y345705D01*
X432999Y345221D01*
X432896Y344950D01*
X432755Y344722D01*
X432512D01*
Y341621D01*
X432512Y341556D01*
X432354Y341122D01*
X431236D01*
X431077Y341556D01*
X431077Y341621D01*
Y344722D01*
X427912D01*
Y343903D01*
X421961D01*
X421146Y344718D01*
Y346807D01*
X422850D01*
Y348235D01*
X423493D01*
X423525Y348159D01*
X423942Y347742D01*
X424487Y347516D01*
X425078D01*
X425624Y347742D01*
X426041Y348159D01*
X426267Y348705D01*
Y349295D01*
X426041Y349841D01*
X425624Y350258D01*
X425078Y350484D01*
X424487D01*
X423942Y350258D01*
X423525Y349841D01*
X423493Y349765D01*
X422850D01*
Y351049D01*
X423011Y351271D01*
X423234Y351433D01*
X427476D01*
X427518Y350951D01*
Y349290D01*
X427442Y349258D01*
X427025Y348841D01*
X426798Y348295D01*
Y347705D01*
X427025Y347159D01*
X427442Y346742D01*
X427987Y346516D01*
X428578D01*
X429123Y346742D01*
X429541Y347159D01*
X429767Y347705D01*
Y348295D01*
X429541Y348841D01*
X429123Y349258D01*
X429047Y349290D01*
Y351447D01*
X429548Y351654D01*
X430682Y350519D01*
D02*
G37*
G36*
X491427Y351073D02*
Y347262D01*
X491429Y347247D01*
X491282Y345745D01*
X490839Y344286D01*
X490446Y343550D01*
X490438Y343548D01*
X490438Y343548D01*
X490409Y343498D01*
X490136Y343210D01*
X490100Y343173D01*
X489297Y342556D01*
X488161Y342086D01*
X488152Y342086D01*
X486879Y341855D01*
X486495Y342175D01*
Y342965D01*
X486495Y343087D01*
X486790Y343465D01*
X488267D01*
Y348008D01*
X486790D01*
X486495Y348386D01*
X486495Y348508D01*
Y349339D01*
X486807Y349622D01*
X487983Y349738D01*
X489115Y350081D01*
X490157Y350638D01*
X490927Y351269D01*
X491427Y351073D01*
D02*
G37*
%LPC*%
G36*
X443665Y374500D02*
X442083D01*
Y372917D01*
X443665D01*
Y374500D01*
D02*
G37*
G36*
X441083D02*
X439500D01*
Y372917D01*
X441083D01*
Y374500D01*
D02*
G37*
G36*
X443665Y365083D02*
X442083D01*
Y363500D01*
X443665D01*
Y365083D01*
D02*
G37*
G36*
X441083D02*
X439500D01*
Y363500D01*
X441083D01*
Y365083D01*
D02*
G37*
G36*
X443665Y362500D02*
X442083D01*
Y360917D01*
X443665D01*
Y362500D01*
D02*
G37*
G36*
X441083D02*
X439500D01*
Y360917D01*
X441083D01*
Y362500D01*
D02*
G37*
G36*
X421480Y380197D02*
X408283D01*
Y367000D01*
X421480D01*
Y380197D01*
D02*
G37*
G36*
Y366000D02*
X408283D01*
Y352803D01*
X421480D01*
Y366000D01*
D02*
G37*
G36*
X407283D02*
X394086D01*
Y352803D01*
X407283D01*
Y366000D01*
D02*
G37*
%LPD*%
D11*
X387769Y366500D02*
G03*
X387671Y366490I0J-500D01*
G01*
X396783Y384043D02*
Y388375D01*
X396759Y384020D02*
X396783Y384043D01*
X394283Y388000D02*
X394734Y387549D01*
X395184Y387099D01*
Y384020D02*
Y387099D01*
X414298Y345205D02*
Y345228D01*
X415513Y348837D02*
X415657Y348980D01*
X415513Y346443D02*
Y348837D01*
X414298Y345228D02*
X415513Y346443D01*
X406208Y346076D02*
Y348980D01*
X406208Y348980D01*
X406208Y346076D02*
X407464Y344820D01*
X400000Y345500D02*
X400025D01*
X401431Y346906D01*
X373751Y367654D02*
X373783Y367622D01*
Y357059D02*
Y367622D01*
X351283Y357108D02*
Y367506D01*
X351283Y367506D01*
X366283Y357119D02*
Y367622D01*
X358783Y357115D02*
Y367488D01*
X385372Y350873D02*
X386842Y352342D01*
X390248D01*
X390263Y352327D01*
X386397Y358000D02*
X387352Y357045D01*
X390257D01*
X386000Y358000D02*
X386397D01*
X366251Y367654D02*
X366283Y367622D01*
X358783Y367488D02*
X358783Y367488D01*
X385655Y371233D02*
X390255D01*
X385646Y371242D02*
X385655Y371233D01*
X385785Y366116D02*
X387671Y366490D01*
X387769Y366500D02*
X390263D01*
X358783Y373694D02*
Y378000D01*
X351283Y374300D02*
Y378000D01*
X432783Y393500D02*
X441283D01*
X443283Y391500D01*
Y388500D02*
Y391500D01*
X401484Y397701D02*
X402783Y399000D01*
X401484Y384020D02*
Y397701D01*
X406208Y392924D02*
X406855Y393571D01*
X406208Y384020D02*
Y392924D01*
X421644Y343139D02*
X429495D01*
X420381Y344402D02*
X421644Y343139D01*
X433283Y351500D02*
Y354500D01*
Y350414D02*
X436697Y347000D01*
X441283D02*
X442783Y345500D01*
X434283Y350829D02*
X437111Y348000D01*
X443783D02*
X445583Y346200D01*
X437111Y348000D02*
X443783D01*
X445583Y346200D02*
X449783D01*
X434095Y343139D02*
X434283Y343327D01*
X428381Y353902D02*
X431447Y350836D01*
Y348836D02*
X434283Y346000D01*
X431447Y348836D02*
Y350836D01*
X434283Y343327D02*
Y346000D01*
X429306Y355476D02*
X430698Y354084D01*
X425354Y357000D02*
X430783D01*
X433283Y354500D01*
Y350414D02*
Y351500D01*
X431157Y358626D02*
X434283Y355500D01*
X437783Y347000D02*
X441283D01*
X436697D02*
X437783D01*
X449783Y350800D02*
Y358500D01*
X431603Y373311D02*
X432000D01*
X434283Y350829D02*
Y355500D01*
X432082Y360201D02*
X435283Y357000D01*
X436983D01*
X433492Y361776D02*
X434716Y363000D01*
X436983D01*
X434283Y368000D02*
X435283Y369000D01*
X434283Y365086D02*
Y368000D01*
X435283Y369000D02*
X436983D01*
X432197Y363000D02*
X434283Y365086D01*
X432783Y368500D02*
X436983Y372700D01*
X432783Y365000D02*
Y368500D01*
X431783Y364000D02*
X432783Y365000D01*
X425302Y374374D02*
X430607D01*
X425302Y363350D02*
X428518D01*
X428869Y363000D01*
X425302Y364925D02*
X428358D01*
X429283Y364000D01*
X425352Y366550D02*
X428325D01*
X425302Y366500D02*
X425352Y366550D01*
X428325D02*
X428575Y366300D01*
X430578D01*
X390255Y371233D02*
X390263Y371224D01*
X441583Y357000D02*
X448283D01*
X425302Y358626D02*
X431157D01*
X425302Y360201D02*
X432082D01*
X425302Y361776D02*
X433492D01*
X428869Y363000D02*
X432197D01*
X429283Y364000D02*
X431783D01*
X449783Y358500D02*
Y362000D01*
X448283Y357000D02*
X449783Y358500D01*
X441583Y369000D02*
X445783D01*
X430578Y366300D02*
X430783Y366095D01*
X445783Y369000D02*
X449783Y365000D01*
X425302Y357051D02*
X425354Y357000D01*
X421976Y349000D02*
X424783D01*
X421956Y348980D02*
X421976Y349000D01*
X425302Y352327D02*
X427956D01*
X428283Y352000D01*
Y348000D02*
Y352000D01*
X425302Y353902D02*
X428381D01*
X425302Y355476D02*
X429306D01*
X390261Y361773D02*
X390263Y361776D01*
X385749Y361773D02*
X390261D01*
X371580Y388203D02*
X394080D01*
X410858Y348906D02*
X410932Y348980D01*
X410858Y345575D02*
Y348906D01*
X428721Y377524D02*
X429965Y378768D01*
X425302Y377524D02*
X428721D01*
X425302Y379099D02*
X428881D01*
X422885Y387000D02*
X423283D01*
X422457Y386572D02*
X422885Y387000D01*
X420381Y386279D02*
X420674Y386572D01*
X420381Y384020D02*
Y386279D01*
X420674Y386572D02*
X422457D01*
X417232Y384020D02*
X417257Y384045D01*
Y386974D01*
X420381Y344402D02*
Y348980D01*
X361783Y394200D02*
X369406D01*
X369452Y394154D01*
Y390331D02*
Y394154D01*
Y390331D02*
X371580Y388203D01*
X394080D02*
X394283Y388000D01*
X465783Y377500D02*
X467283Y376000D01*
X436983Y372700D02*
Y375000D01*
X434242Y377959D02*
X458323D01*
X460283Y376000D01*
X430783Y381000D02*
X436983D01*
X457783Y363500D02*
X464783D01*
X467283Y366000D01*
X457283Y360000D02*
Y363000D01*
X457783Y363500D01*
X460283Y370376D02*
Y376000D01*
X396759Y348980D02*
X396771Y348969D01*
Y345012D02*
Y348969D01*
Y345012D02*
X396783Y345000D01*
X401431Y348927D02*
X401484Y348980D01*
X401431Y346906D02*
Y348927D01*
X385725Y380612D02*
X385755Y380643D01*
X385302Y384020D02*
X393610D01*
X390233Y380643D02*
X390263Y380673D01*
X385755Y380643D02*
X390233D01*
X390263Y375949D02*
X390263Y375949D01*
X385708Y375949D02*
X390263D01*
X385707Y375948D02*
X385708Y375949D01*
X366269Y373856D02*
Y378014D01*
X373783Y374378D02*
Y378000D01*
X373751Y374347D02*
X373783Y374378D01*
X467283Y366000D02*
Y376000D01*
X431189Y372898D02*
X431603Y373311D01*
X425401Y372898D02*
X431189D01*
X425302Y372799D02*
X425401Y372898D01*
X425302Y371224D02*
X425382Y371145D01*
X430766D01*
X430784Y371163D01*
X432247Y388765D02*
X432483Y389000D01*
X421453Y388765D02*
X432247D01*
X421283Y391000D02*
X423783D01*
X418806Y384020D02*
X418950Y384163D01*
Y386262D02*
X421453Y388765D01*
X418950Y384163D02*
Y386262D01*
X417257Y386974D02*
X421283Y391000D01*
X415657Y384020D02*
Y387874D01*
X418783Y391000D01*
Y392000D01*
Y393000D01*
X414064Y384038D02*
Y388734D01*
X415556Y390226D01*
X412938Y386668D02*
Y389022D01*
X413822Y389906D02*
Y392204D01*
X406855Y393571D02*
Y393968D01*
X404383Y405100D02*
X404483Y405000D01*
X404383Y405100D02*
X404583Y405300D01*
X409083Y405000D02*
X413783D01*
X412938Y389022D02*
X413822Y389906D01*
X411857Y390029D02*
Y390426D01*
X410932Y389104D02*
X411857Y390029D01*
X410932Y384020D02*
Y389104D01*
X378113Y400847D02*
X391940D01*
X404583Y405300D02*
Y411500D01*
X408983D01*
X391940Y400847D02*
X394649Y398138D01*
Y390510D02*
X396783Y388375D01*
X394649Y390510D02*
Y398138D01*
X414064Y384038D02*
X414082Y384020D01*
X412507Y386237D02*
X412938Y386668D01*
X412507Y384020D02*
Y386237D01*
X430607Y374374D02*
X431280Y375047D01*
X434236D01*
X434283Y375000D01*
X428265Y376524D02*
X430423D01*
X430679Y376780D01*
X427740Y375999D02*
X428265Y376524D01*
X425302Y375949D02*
X425352Y375999D01*
X427740D01*
X429965Y378768D02*
X433434D01*
X434242Y377959D01*
X428881Y379099D02*
X430783Y381000D01*
X413583Y411500D02*
X440783D01*
X443283Y409000D01*
Y403500D02*
Y409000D01*
X462783Y365000D02*
X465083Y367300D01*
Y375747D01*
X461330Y379500D02*
X465083Y375747D01*
X447283Y379500D02*
X461330D01*
X449783Y362000D02*
X452783Y365000D01*
X462783D01*
X449783D02*
X452783D01*
X442783Y340800D02*
Y345500D01*
X449783Y340800D02*
Y346200D01*
Y340800D02*
X455283D01*
X437083Y389000D02*
X439783D01*
X441583Y381000D02*
X445783D01*
X447283Y379500D01*
X439783Y389000D02*
X441583Y387200D01*
Y381000D02*
Y387200D01*
D13*
X210000Y315008D02*
Y340992D01*
X210008Y341000D01*
X268500D01*
X268701Y304201D02*
Y309839D01*
X268500Y304000D02*
X268701Y304201D01*
D15*
X438355Y350800D02*
X449783D01*
X421956Y384020D02*
X427802D01*
X440283Y330000D02*
X445413Y324869D01*
X436565Y352590D02*
X438355Y350800D01*
X461247Y324911D02*
X466944D01*
X466985Y324952D01*
X461205Y324869D02*
X461247Y324911D01*
X422736Y335975D02*
X429758D01*
X424783Y340000D02*
X429283D01*
X429758Y335975D02*
X429783Y336000D01*
X429283Y340000D02*
X429783Y339500D01*
X429283Y340000D02*
X438283D01*
X440283Y338000D01*
X429783Y336000D02*
Y339500D01*
X461187Y324888D02*
Y332224D01*
X445413Y324869D02*
X461205D01*
X461168Y332243D02*
X461187Y332224D01*
Y324888D02*
X461205Y324869D01*
X440283Y330000D02*
Y338000D01*
X427802Y384020D02*
X429783Y386000D01*
D17*
X393783Y371500D02*
X402783D01*
X407783Y366500D01*
D41*
X255000Y318500D02*
G03*
X245000Y308500I0J-10000D01*
G01*
X255000Y318500D02*
X268701D01*
X245000Y298500D02*
Y308500D01*
X275000Y291500D02*
Y309839D01*
X539000Y143000D02*
Y163000D01*
X388500Y291500D02*
X412000D01*
X401000Y141000D02*
Y160000D01*
X253500Y291500D02*
X275000D01*
X261000Y142000D02*
Y166500D01*
X387283Y416000D02*
X447533D01*
X381283Y410000D02*
X387283Y416000D01*
X19500Y364721D02*
X19589Y364632D01*
X516283Y326682D02*
Y403500D01*
X447533Y416000D02*
X452533Y411000D01*
X514553Y324952D02*
X516283Y326682D01*
X466985Y324952D02*
X514553D01*
X452533Y411000D02*
X508783D01*
X516283Y403500D01*
D42*
X456820Y291955D02*
G03*
X453327Y295449I-3494J0D01*
G01*
X462783D02*
G03*
X459289Y291955I0J-3494D01*
G01*
X177316Y291866D02*
G03*
X173733Y295449I-3583J0D01*
G01*
X183368D02*
G03*
X179784Y291866I0J-3583D01*
G01*
X323000Y295449D02*
G03*
X319499Y291948I0J-3501D01*
G01*
X317031Y291918D02*
G03*
X313500Y295449I-3531J0D01*
G01*
X457390Y307500D02*
G03*
X451390Y313500I-6000J0D01*
G01*
X417232Y324829D02*
G03*
X428561Y313500I11329J0D01*
G01*
X458719Y307500D02*
G03*
X451390Y314829I-7329J0D01*
G01*
X458719Y305614D02*
G03*
X462783Y301551I4063J0D01*
G01*
X418806Y324829D02*
G03*
X428806Y314829I10000J0D01*
G01*
X453327Y301551D02*
G03*
X457390Y305614I0J4063D01*
G01*
X321415Y320500D02*
G03*
X318915Y318000I0J-2500D01*
G01*
Y305637D02*
G03*
X323000Y301551I4085J0D01*
G01*
X393304Y320500D02*
G03*
X404633Y331829I0J11329D01*
G01*
X321415Y321829D02*
G03*
X317585Y318000I0J-3829D01*
G01*
X393058Y321829D02*
G03*
X403058Y331829I0J10000D01*
G01*
X313500Y301551D02*
G03*
X317585Y305637I0J4085D01*
G01*
X380076Y354024D02*
G03*
X379332Y353553I4J-829D01*
G01*
X376682Y351000D02*
G03*
X377187Y351171I0J829D01*
G01*
X377507Y353094D02*
G03*
X377791Y353421I-462J689D01*
G01*
X380080Y355354D02*
G03*
X378137Y354136I0J-2159D01*
G01*
X376507Y352593D02*
G03*
X377507Y353094I-1532J4310D01*
G01*
X374976Y352329D02*
G03*
X376507Y352593I0J4574D01*
G01*
X378369Y352077D02*
G03*
X378988Y352841I-1324J1705D01*
G01*
X390263Y353902D02*
G03*
X390140Y354024I-123J0D01*
G01*
X179215Y305704D02*
G03*
X183368Y301551I4153J0D01*
G01*
X187798Y351000D02*
G03*
X179215Y342417I0J-8583D01*
G01*
X390140Y355354D02*
G03*
X390263Y355476I0J123D01*
G01*
X187798Y352329D02*
G03*
X177885Y342417I0J-9912D01*
G01*
X173733Y301551D02*
G03*
X177885Y305704I0J4153D01*
G01*
X379329Y374923D02*
G03*
X384603Y369650I5274J0D01*
G01*
X386342Y368075D02*
G03*
X386199Y368062I4J-829D01*
G01*
X386213Y369400D02*
G03*
X385970Y369371I133J-2155D01*
G01*
X378000Y374923D02*
G03*
X384848Y368075I6848J0D01*
G01*
X384603Y369650D02*
G03*
X385970Y369371I1036J1592D01*
G01*
X385073Y368063D02*
G03*
X386199Y368062I566J3178D01*
G01*
X385073Y368063D02*
G03*
X384936Y368075I-141J-817D01*
G01*
X39415Y305637D02*
G03*
X43500Y301551I4085J0D01*
G01*
X378000Y376500D02*
G03*
X372000Y382500I-6000J0D01*
G01*
X49415D02*
G03*
X39415Y372500I0J-10000D01*
G01*
X379329Y376500D02*
G03*
X372000Y383829I-7329J0D01*
G01*
X49415D02*
G03*
X38085Y372500I0J-11329D01*
G01*
X34000Y301551D02*
G03*
X38085Y305637I0J4085D01*
G01*
X187798Y351000D02*
X376682D01*
X187798Y352329D02*
X374976D01*
X456820Y288539D02*
Y291955D01*
X459289Y288539D02*
Y291955D01*
X317031Y288539D02*
Y291918D01*
X319499Y288539D02*
Y291948D01*
X177316Y288539D02*
Y291866D01*
X179784Y288539D02*
Y291866D01*
X457390Y305614D02*
Y307500D01*
X428561Y313500D02*
X451390D01*
X417232Y324829D02*
Y348980D01*
X458719Y305614D02*
Y307500D01*
X428806Y314829D02*
X451390D01*
X418806Y324829D02*
Y348980D01*
X318915Y305637D02*
Y318000D01*
X321415Y320500D02*
X393304D01*
X317585Y305637D02*
Y318000D01*
X321415Y321829D02*
X393058D01*
X403058Y331829D02*
Y348980D01*
X404633Y331829D02*
Y348980D01*
X380076Y354024D02*
X390140D01*
X378988Y352841D02*
X379332Y353553D01*
X377857Y351680D02*
X378369Y352077D01*
X377187Y351171D02*
X377857Y351680D01*
X377791Y353421D02*
X378137Y354136D01*
X380080Y355354D02*
X390140D01*
X179215Y305704D02*
Y342417D01*
X177885Y305704D02*
Y342417D01*
X386213Y369400D02*
X390263Y369650D01*
X379329Y374923D02*
Y376500D01*
X384848Y368075D02*
X384936D01*
X385970Y369371D02*
Y369371D01*
X386342Y368075D02*
X390263D01*
X386199Y368062D02*
Y368062D01*
X386342Y368075D02*
X386342D01*
X378000Y374923D02*
Y376500D01*
X49415Y382500D02*
X372000D01*
X39415Y305637D02*
Y372500D01*
X49415Y383829D02*
X372000D01*
X38085Y305637D02*
Y372500D01*
X37516Y290951D02*
X38085Y291521D01*
X37516Y290643D02*
Y290951D01*
X38085Y291521D02*
Y294963D01*
X39415Y291723D02*
X40220Y290917D01*
X37600Y295449D02*
X38085Y294963D01*
X34000Y295449D02*
X37600D01*
X39900D02*
X43500D01*
X39415Y294963D02*
X39900Y295449D01*
X39415Y291723D02*
Y294963D01*
D43*
X490993Y342785D02*
G03*
X491138Y342942I-4093J3923D01*
G01*
X488309Y341217D02*
G03*
X490993Y342785I-1409J5491D01*
G01*
X491142Y342946D02*
G03*
X491224Y343065I-557J477D01*
G01*
D02*
G03*
X492310Y347262I-7569J4197D01*
G01*
X482415Y340364D02*
G03*
X482963Y340246I416J603D01*
G01*
X490935Y352599D02*
G03*
X491077Y353028I-591J433D01*
G01*
X485699Y350638D02*
G03*
X490935Y352599I1108J5013D01*
G01*
X485699Y350638D02*
G03*
X485552Y350654I-153J-717D01*
G01*
X464383Y384462D02*
G03*
X465217Y384117I834J834D01*
G01*
X464299Y384665D02*
G03*
X464383Y384462I287J0D01*
G01*
X464299Y384665D02*
G03*
X464215Y384868I-287J0D01*
G01*
X488283Y387500D02*
G03*
X487712Y387736I-571J-571D01*
G01*
X466894Y384117D02*
G03*
X471802Y386150I0J6941D01*
G01*
X486852Y388000D02*
G03*
X486216Y388263I-636J-636D01*
G01*
X476899D02*
G03*
X471807Y386154I0J-7201D01*
G01*
X492925Y360013D02*
G03*
X492310Y358528I1485J-1485D01*
G01*
X464215Y382132D02*
G03*
X464299Y382335I-203J203D01*
G01*
X464383Y382538D02*
G03*
X464299Y382335I203J-203D01*
G01*
X486546Y385966D02*
G03*
X486783Y385395I807J0D01*
G01*
X486546Y386231D02*
G03*
X486312Y386796I-799J0D01*
G01*
D02*
G03*
X485747Y387030I-565J-565D01*
G01*
X466904Y382883D02*
G03*
X472667Y385271I0J8151D01*
G01*
X465217Y382883D02*
G03*
X464383Y382538I0J-1179D01*
G01*
X476906Y387030D02*
G03*
X472674Y385278I0J-5984D01*
G01*
X491077Y358583D02*
G03*
X490462Y360068I-2101J0D01*
G01*
X486852Y388000D02*
G03*
X487489Y387736I636J636D01*
G01*
X490283Y360500D02*
G03*
X490462Y360068I611J0D01*
G01*
X492925Y360013D02*
G03*
X493104Y360445I-432J432D01*
G01*
X454019Y384362D02*
G03*
X454535Y384150I516J521D01*
G01*
X458248Y382386D02*
G03*
X458083Y382672I-701J-213D01*
G01*
D02*
G03*
X457520Y382916I-563J-525D01*
G01*
X458283Y382270D02*
G03*
X458327Y382159I701J213D01*
G01*
X453150Y383488D02*
G03*
X454535Y382916I1386J1395D01*
G01*
X458327Y382159D02*
G03*
X458350Y382133I227J177D01*
G01*
X457605Y384150D02*
G03*
X458267Y384665I0J682D01*
G01*
X458350Y384867D02*
G03*
X458267Y384665I204J-203D01*
G01*
X458351Y384868D02*
G03*
X458350Y384867I203J-203D01*
G01*
X449714Y393552D02*
G03*
X452921Y385460I10954J-340D01*
G01*
X448481Y393587D02*
G03*
X448206Y394180I-733J20D01*
G01*
X448937Y395219D02*
G03*
X443987Y396883I-4950J-6532D01*
G01*
X449714Y393552D02*
G03*
X449253Y394873I-1965J55D01*
G01*
X448481Y393587D02*
G03*
X452051Y384587I12186J-375D01*
G01*
X448206Y394180D02*
G03*
X447537Y394646I-4232J-5359D01*
G01*
X449059Y395104D02*
G03*
X448937Y395219I-561J-472D01*
G01*
X447537Y394646D02*
G03*
X443974Y395650I-3563J-5825D01*
G01*
X412116Y394963D02*
G03*
X409187Y387892I7071J-7071D01*
G01*
Y385591D02*
G03*
X409272Y385385I292J0D01*
G01*
X409358Y385178D02*
G03*
X409272Y385385I-292J0D01*
G01*
X412799Y396883D02*
G03*
X411933Y396524I0J-1225D01*
G01*
X407868Y385385D02*
G03*
X407954Y385591I-206J206D01*
G01*
X407868Y385385D02*
G03*
X407783Y385178I206J-206D01*
G01*
X490177Y380185D02*
G03*
X490834Y380602I-4J733D01*
G01*
X406343Y397690D02*
G03*
X404462Y393150I4541J-4541D01*
G01*
X485641Y370342D02*
G03*
X492459Y375422I299J6714D01*
G01*
X491142Y381092D02*
G03*
X490834Y380602I1896J-1530D01*
G01*
X492461Y375429D02*
G03*
X492459Y375422I708J-191D01*
G01*
X492510Y375612D02*
G03*
X492535Y375802I-708J191D01*
G01*
X411241Y395832D02*
G03*
X407954Y387895I7937J-7937D01*
G01*
X491142Y381092D02*
G03*
X491302Y381547I-572J458D01*
G01*
X492535Y394153D02*
G03*
X492177Y395019I-1225J0D01*
G01*
X485641Y370342D02*
G03*
X485617Y370343I-29J-733D01*
G01*
X407299Y399883D02*
G03*
X406433Y399524I0J-1225D01*
G01*
X405467Y398558D02*
G03*
X403229Y393156I5402J-5402D01*
G01*
X403144Y385385D02*
G03*
X403229Y385591I-206J206D01*
G01*
X403144Y385385D02*
G03*
X403058Y385178I206J-206D01*
G01*
X489731Y395721D02*
G03*
X482660Y398650I-7071J-7071D01*
G01*
X404462Y385591D02*
G03*
X404548Y385385I292J0D01*
G01*
X404633Y385178D02*
G03*
X404548Y385385I-292J0D01*
G01*
X490600Y396596D02*
G03*
X482665Y399883I-7936J-7936D01*
G01*
X398419Y385385D02*
G03*
X398505Y385591I-206J206D01*
G01*
X398419Y385385D02*
G03*
X398334Y385178I206J-206D01*
G01*
X398527Y401056D02*
G03*
X398218Y401802I-1055J0D01*
G01*
X397909Y402445D02*
G03*
X398146Y401874I807J0D01*
G01*
X399909Y385178D02*
G03*
X399823Y385385I-292J0D01*
G01*
X399738Y385591D02*
G03*
X399823Y385385I292J0D01*
G01*
X400141Y401874D02*
G03*
X400378Y402445I-571J571D01*
G01*
X400069Y401802D02*
G03*
X399760Y401056I746J-746D01*
G01*
X492310Y347262D02*
Y358528D01*
X491138Y342942D02*
X491142Y342946D01*
X482963Y340246D02*
X488309Y341217D01*
X481994Y340655D02*
X482415Y340364D01*
X481763Y340815D02*
X481994Y340655D01*
X481763Y350658D02*
X485420Y350654D01*
X485552Y350654D01*
X491077Y353028D02*
Y358583D01*
X465217Y384117D02*
X466894D01*
X487489Y387736D02*
X487712D01*
X471802Y386150D02*
X471807Y386154D01*
X476899Y388263D02*
X486216D01*
X486546Y385966D02*
Y386231D01*
X465217Y382883D02*
X466904D01*
X476906Y387030D02*
X485747D01*
X472667Y385271D02*
X472674Y385278D01*
X463583Y385500D02*
X464215Y384868D01*
X463583Y381500D02*
X464215Y382132D01*
X454535Y384150D02*
X457605D01*
X454535Y382916D02*
X457520Y382916D01*
X458248Y382386D02*
X458283Y382270D01*
X452051Y384587D02*
X453150Y383488D01*
X452921Y385460D02*
X454019Y384362D01*
X458351Y384868D02*
X458983Y385500D01*
X449059Y395104D02*
X449253Y394873D01*
X458351Y382132D02*
X458983Y381500D01*
X458350Y382133D02*
X458351Y382132D01*
X412802Y395650D02*
X443974D01*
X412116Y394963D02*
X412802Y395650D01*
X409187Y385591D02*
Y387892D01*
X409358Y384020D02*
Y385178D01*
X412799Y396883D02*
X443987D01*
X407954Y385591D02*
Y387895D01*
X407783Y384020D02*
Y385178D01*
X407302Y398650D02*
X482660D01*
X407299Y399883D02*
X482665D01*
X489477Y380185D02*
X490177Y380185D01*
X492461Y375429D02*
X492510Y375612D01*
X406343Y397690D02*
X407302Y398650D01*
X492535Y375802D02*
Y394153D01*
X411241Y395832D02*
X411933Y396524D01*
X491302Y381547D02*
Y394150D01*
X481763Y380185D02*
X489477D01*
X489731Y395721D02*
X491302Y394150D01*
X490600Y396596D02*
X492177Y395019D01*
X481763Y370343D02*
X485617D01*
X403229Y385591D02*
Y393156D01*
X403058Y384020D02*
Y385178D01*
X404462Y385591D02*
Y393150D01*
X404633Y384020D02*
Y385178D01*
X405467Y398558D02*
X406433Y399524D01*
X398334Y384020D02*
Y385178D01*
X398527Y393138D02*
Y401056D01*
X398505Y385591D02*
Y393116D01*
X398146Y401874D02*
X398218Y401802D01*
X399909Y384020D02*
Y385178D01*
X400069Y401802D02*
X400141Y401874D01*
X399738Y385591D02*
Y392605D01*
X399760Y392627D02*
Y401056D01*
X398505Y393116D02*
X398527Y393138D01*
X399738Y392605D02*
X399760Y392627D01*
D44*
X34000Y295449D02*
D03*
Y301551D02*
D03*
X43500Y295449D02*
D03*
Y301551D02*
D03*
X173733Y295449D02*
D03*
Y301551D02*
D03*
X183368Y295449D02*
D03*
Y301551D02*
D03*
X313500Y295449D02*
D03*
Y301551D02*
D03*
X323000Y295449D02*
D03*
Y301551D02*
D03*
X462783Y295449D02*
D03*
Y301551D02*
D03*
X453327Y295449D02*
D03*
Y301551D02*
D03*
X466985Y324952D02*
D03*
Y318850D02*
D03*
X461205Y324869D02*
D03*
Y318767D02*
D03*
D45*
X210000Y340992D02*
D03*
D46*
X219055Y315008D02*
D03*
X210000D02*
D03*
D47*
X200945D02*
D03*
D48*
X190000Y332000D02*
D03*
Y324000D02*
D03*
X229500Y325000D02*
D03*
Y333000D02*
D03*
X429783Y336000D02*
D03*
Y328000D02*
D03*
D49*
X75000Y11500D02*
D03*
X64370D02*
D03*
X85630D02*
D03*
X489500D02*
D03*
X478870D02*
D03*
X500130D02*
D03*
X351000D02*
D03*
X340370D02*
D03*
X361630D02*
D03*
X213000D02*
D03*
X202370D02*
D03*
X223630D02*
D03*
D50*
X268701Y309839D02*
D03*
X275000Y318500D02*
D03*
Y309839D02*
D03*
X268701Y318500D02*
D03*
D51*
X367641Y400650D02*
D03*
X376302D02*
D03*
Y393957D02*
D03*
X367641D02*
D03*
D52*
X436983Y375000D02*
D03*
X441583D02*
D03*
X436983Y369000D02*
D03*
X441583D02*
D03*
X432483Y389000D02*
D03*
X437083D02*
D03*
X429495Y343139D02*
D03*
X434095D02*
D03*
X436983Y363000D02*
D03*
X441583D02*
D03*
X436983Y357000D02*
D03*
X441583D02*
D03*
X465083Y370500D02*
D03*
X460483D02*
D03*
X441583Y381000D02*
D03*
X436983D02*
D03*
X385133Y384098D02*
D03*
X380533D02*
D03*
X404483Y405000D02*
D03*
X409083D02*
D03*
X404583Y411500D02*
D03*
X399983D02*
D03*
X413583D02*
D03*
X408983D02*
D03*
X463583Y385500D02*
D03*
X458983D02*
D03*
X463583Y381500D02*
D03*
X458983D02*
D03*
D53*
X449783Y336200D02*
D03*
Y340800D02*
D03*
X443283D02*
D03*
Y336200D02*
D03*
X449783Y350800D02*
D03*
Y346200D02*
D03*
X385283Y396200D02*
D03*
Y400800D02*
D03*
X361783Y398800D02*
D03*
Y394200D02*
D03*
X422736Y331375D02*
D03*
Y335975D02*
D03*
X455283Y336200D02*
D03*
Y340800D02*
D03*
D54*
X351251Y374347D02*
D03*
Y367654D02*
D03*
X358751Y374347D02*
D03*
Y367654D02*
D03*
X366251Y374347D02*
D03*
Y367654D02*
D03*
X373751Y374347D02*
D03*
Y367654D02*
D03*
D55*
X481763Y380185D02*
D03*
Y340815D02*
D03*
Y370343D02*
D03*
Y350658D02*
D03*
Y360500D02*
D03*
D56*
X482649Y345736D02*
D03*
Y375264D02*
D03*
Y355579D02*
D03*
Y365421D02*
D03*
D57*
X407783Y366500D02*
D03*
D58*
X390263Y352327D02*
D03*
Y353902D02*
D03*
Y355476D02*
D03*
Y357051D02*
D03*
Y358626D02*
D03*
Y360201D02*
D03*
Y361776D02*
D03*
Y363351D02*
D03*
Y364925D02*
D03*
Y366500D02*
D03*
Y368075D02*
D03*
Y369650D02*
D03*
Y371224D02*
D03*
Y372799D02*
D03*
Y374374D02*
D03*
Y375949D02*
D03*
Y377524D02*
D03*
Y379099D02*
D03*
Y380673D02*
D03*
X425302D02*
D03*
Y379099D02*
D03*
Y377524D02*
D03*
Y375949D02*
D03*
Y374374D02*
D03*
Y372799D02*
D03*
Y371224D02*
D03*
Y369650D02*
D03*
Y368075D02*
D03*
Y366500D02*
D03*
Y364925D02*
D03*
Y363351D02*
D03*
Y361776D02*
D03*
Y360201D02*
D03*
Y358626D02*
D03*
Y357051D02*
D03*
Y355476D02*
D03*
Y353902D02*
D03*
Y352327D02*
D03*
D59*
X393609Y384020D02*
D03*
X395184D02*
D03*
X396759D02*
D03*
X398334D02*
D03*
X399909D02*
D03*
X401483D02*
D03*
X403058D02*
D03*
X404633D02*
D03*
X406208D02*
D03*
X407783D02*
D03*
X409358D02*
D03*
X410932D02*
D03*
X412507D02*
D03*
X414082D02*
D03*
X415657D02*
D03*
X417232D02*
D03*
X418806D02*
D03*
X420381D02*
D03*
X421956D02*
D03*
Y348980D02*
D03*
X420381D02*
D03*
X418806D02*
D03*
X417232D02*
D03*
X415657D02*
D03*
X414082D02*
D03*
X412507D02*
D03*
X410932D02*
D03*
X409358D02*
D03*
X407783D02*
D03*
X406208D02*
D03*
X404633D02*
D03*
X403058D02*
D03*
X401483D02*
D03*
X399909D02*
D03*
X398334D02*
D03*
X396759D02*
D03*
X395184D02*
D03*
X393609D02*
D03*
D60*
X461168Y337558D02*
D03*
Y332243D02*
D03*
D61*
X203500Y281000D02*
X211500D01*
X219055Y288555D02*
Y315008D01*
X211500Y281000D02*
X219055Y288555D01*
X192798Y340992D02*
X210000D01*
X190000Y338194D02*
X192798Y340992D01*
X190000Y332000D02*
Y338194D01*
X227194Y315000D02*
X229500Y317306D01*
Y325000D01*
X219055Y315008D02*
X219063Y315000D01*
X227194D01*
X487000Y281000D02*
Y313500D01*
X351000Y281000D02*
Y313500D01*
X203500Y281000D02*
Y306000D01*
D62*
X489500Y11500D02*
Y22000D01*
X351000Y11500D02*
Y22000D01*
X213000Y11500D02*
Y22500D01*
X75000Y11500D02*
Y22500D01*
D63*
X476910Y355579D02*
X482649D01*
X472905Y359584D02*
X476910Y355579D01*
X468101Y359584D02*
X472905D01*
X467783Y359266D02*
X468101Y359584D01*
Y361416D02*
X472905D01*
X476910Y365421D01*
X467783Y361734D02*
X468101Y361416D01*
X476910Y365421D02*
X482649D01*
D64*
X425302Y380673D02*
X428456D01*
X431783Y384000D01*
X433783D01*
D65*
X461168Y337558D02*
Y343885D01*
X463019Y345736D01*
X482649D01*
D66*
X262138Y314169D02*
D03*
X281350D02*
D03*
D67*
X19500Y378500D02*
D03*
D68*
Y364721D02*
D03*
D69*
X503200Y387272D02*
D03*
Y333729D02*
D03*
D70*
Y347114D02*
D03*
Y373886D02*
D03*
D71*
X-1000Y-1000D02*
D03*
X538500D02*
D03*
Y433000D02*
D03*
X-1000D02*
D03*
D72*
X268500Y341000D02*
D03*
Y304000D02*
D03*
X487000Y281000D02*
D03*
Y313500D02*
D03*
X351000D02*
D03*
Y281000D02*
D03*
X203500Y306000D02*
D03*
Y281000D02*
D03*
X245000Y298500D02*
D03*
X539000Y143000D02*
D03*
Y163000D02*
D03*
X459289Y288539D02*
D03*
X456820D02*
D03*
X412000Y291500D02*
D03*
X388500D02*
D03*
X401000Y141000D02*
D03*
Y160000D02*
D03*
X319499Y288539D02*
D03*
X317031D02*
D03*
X275000Y291500D02*
D03*
X253500D02*
D03*
X261000Y142000D02*
D03*
Y166500D02*
D03*
X179784Y288539D02*
D03*
X177316D02*
D03*
X489500Y22000D02*
D03*
X351000D02*
D03*
X213000Y22500D02*
D03*
X75000D02*
D03*
X421490Y340643D02*
D03*
X414298Y345205D02*
D03*
X407464Y344820D02*
D03*
X400000Y345500D02*
D03*
X373783Y357059D02*
D03*
X351283Y357108D02*
D03*
X366283Y357119D02*
D03*
X358783Y357115D02*
D03*
X386000Y358000D02*
D03*
X385372Y350873D02*
D03*
X385793Y348441D02*
D03*
X385646Y371242D02*
D03*
X385785Y366116D02*
D03*
X358783Y378000D02*
D03*
X351283D02*
D03*
X39984Y290643D02*
D03*
X37516D02*
D03*
X488283Y387500D02*
D03*
X486783Y385395D02*
D03*
X493104Y360445D02*
D03*
X490283Y360500D02*
D03*
X402783Y399000D02*
D03*
X467783Y359266D02*
D03*
Y361734D02*
D03*
X400378Y402445D02*
D03*
X397909D02*
D03*
X457283Y360000D02*
D03*
X444783Y360000D02*
D03*
X410926Y345464D02*
D03*
X424783Y349000D02*
D03*
X429783Y386000D02*
D03*
X423283Y387000D02*
D03*
X423783Y391000D02*
D03*
X418783Y392000D02*
D03*
X415556Y390226D02*
D03*
X413783Y405000D02*
D03*
X413822Y392204D02*
D03*
X411857Y390426D02*
D03*
X424783Y340000D02*
D03*
X396783Y345000D02*
D03*
X428283Y348000D02*
D03*
X436565Y352590D02*
D03*
X434283Y346000D02*
D03*
X430698Y354084D02*
D03*
X384783Y345000D02*
D03*
X393783Y356500D02*
D03*
X443283Y403500D02*
D03*
X406855Y393968D02*
D03*
X438284Y405752D02*
D03*
X420322Y403744D02*
D03*
X385725Y380612D02*
D03*
X385783Y376000D02*
D03*
X385798Y361782D02*
D03*
X393783Y371500D02*
D03*
X410114Y369961D02*
D03*
X366269Y378014D02*
D03*
X373783Y378000D02*
D03*
X389783Y386000D02*
D03*
X430679Y376780D02*
D03*
X465783Y377500D02*
D03*
X434283Y375000D02*
D03*
X432000Y373311D02*
D03*
X430784Y371163D02*
D03*
X430783Y366095D02*
D03*
X433783Y384000D02*
D03*
X432783Y393500D02*
D03*
X443283Y388500D02*
D03*
X451298Y370295D02*
D03*
D73*
X381283Y410000D02*
D03*
M02*
